<?xml version="1.0" encoding="UTF-8" standalone="no"?>
<!-- Created with Inkscape (http://www.inkscape.org/) -->

<svg
   width="10.045719mm"
   height="10.638391mm"
   viewBox="0 0 10.045719 10.638392"
   version="1.1"
   id="svg1"
   xml:space="preserve"
   inkscape:version="1.3 (0e150ed6c4, 2023-07-21)"
   sodipodi:docname="Wio-SX1262.svg"
   xmlns:inkscape="http://www.inkscape.org/namespaces/inkscape"
   xmlns:sodipodi="http://sodipodi.sourceforge.net/DTD/sodipodi-0.dtd"
   xmlns="http://www.w3.org/2000/svg"
   xmlns:svg="http://www.w3.org/2000/svg"><sodipodi:namedview
     id="namedview1"
     pagecolor="#505050"
     bordercolor="#ffffff"
     borderopacity="1"
     inkscape:showpageshadow="0"
     inkscape:pageopacity="0"
     inkscape:pagecheckerboard="1"
     inkscape:deskcolor="#d1d1d1"
     inkscape:document-units="mm"
     inkscape:zoom="11.313708"
     inkscape:cx="29.300737"
     inkscape:cy="16.042485"
     inkscape:window-width="1920"
     inkscape:window-height="1009"
     inkscape:window-x="-8"
     inkscape:window-y="-8"
     inkscape:window-maximized="1"
     inkscape:current-layer="g42" /><defs
     id="defs1"><inkscape:path-effect
       effect="fillet_chamfer"
       id="path-effect5"
       is_visible="true"
       lpeversion="1"
       nodesatellites_param="F,0,0,1,0,4.7625,0,1 @ F,0,0,1,0,4.7625,0,1 @ F,0,0,1,0,4.7625,0,1 @ F,0,0,1,0,4.7625,0,1 @ F,0,0,1,0,4.7625,0,1 @ F,0,0,1,0,4.7625,0,1"
       radius="18"
       unit="px"
       method="auto"
       mode="F"
       chamfer_steps="1"
       flexible="false"
       use_knot_distance="true"
       apply_no_radius="true"
       apply_with_radius="true"
       only_selected="false"
       hide_knots="false" /><clipPath
       clipPathUnits="userSpaceOnUse"
       id="clipPath2"><path
         d="M 0,66.129 H 305.037 V 0 H 0 Z"
         transform="translate(-47.452101,-34.032701)"
         id="path2-3" /></clipPath><clipPath
       clipPathUnits="userSpaceOnUse"
       id="clipPath4"><path
         d="M 0,66.129 H 305.037 V 0 H 0 Z"
         transform="translate(-75.581102,-34.032701)"
         id="path4-2" /></clipPath><clipPath
       clipPathUnits="userSpaceOnUse"
       id="clipPath6"><path
         d="M 0,66.129 H 305.037 V 0 H 0 Z"
         transform="translate(-103.7095,-34.032701)"
         id="path6" /></clipPath><clipPath
       clipPathUnits="userSpaceOnUse"
       id="clipPath8"><path
         d="M 0,66.129 H 305.037 V 0 H 0 Z"
         transform="translate(-282.72951,-28.688)"
         id="path8" /></clipPath><clipPath
       clipPathUnits="userSpaceOnUse"
       id="clipPath10"><path
         d="M 0,66.129 H 305.037 V 0 H 0 Z"
         transform="translate(-192.4497,-47.396501)"
         id="path10" /></clipPath><clipPath
       clipPathUnits="userSpaceOnUse"
       id="clipPath12"><path
         d="M 0,66.129 H 305.037 V 0 H 0 Z"
         transform="translate(-214.8721,-29.777401)"
         id="path12" /></clipPath><clipPath
       clipPathUnits="userSpaceOnUse"
       id="clipPath14"><path
         d="M 0,66.129 H 305.037 V 0 H 0 Z"
         transform="translate(-23.846701,-36.968801)"
         id="path14" /></clipPath><clipPath
       clipPathUnits="userSpaceOnUse"
       id="clipPath16"><path
         d="M 0,66.129 H 305.037 V 0 H 0 Z"
         transform="translate(-169.77051,-36.968801)"
         id="path16" /></clipPath><clipPath
       clipPathUnits="userSpaceOnUse"
       id="clipPath18"><path
         d="M 0,66.129 H 305.037 V 0 H 0 Z"
         id="path18" /></clipPath><clipPath
       clipPathUnits="userSpaceOnUse"
       id="clipPath20"><path
         d="M 0,66.129 H 305.037 V 0 H 0 Z"
         id="path20" /></clipPath><clipPath
       clipPathUnits="userSpaceOnUse"
       id="clipPath22"><path
         d="M 0,66.129 H 305.037 V 0 H 0 Z"
         transform="translate(-145.72221,-28.678201)"
         id="path22" /></clipPath><clipPath
       clipPathUnits="userSpaceOnUse"
       id="clipPath24"><path
         d="M 0,66.129 H 305.037 V 0 H 0 Z"
         transform="translate(-243.30031,-28.678201)"
         id="path24" /></clipPath></defs><g
     inkscape:label="Layer 1"
     inkscape:groupmode="layer"
     id="layer1"
     transform="translate(843.21364,-378.87789)"><g
       id="g42"
       transform="matrix(0.06644951,0,0,0.06644951,-782.49341,358.66738)"><path
         d="m -913.03371,304.1484 c -0.19537,0 -0.3717,0.0787 -0.49919,0.20619 -0.12749,0.12748 -0.20619,0.30382 -0.20619,0.49919 v 14.64717 a 2.5127225,2.5127225 0 0 1 0.0667,0.009 2.5127225,2.5127225 0 0 1 0.60617,0.25115 2.5127225,2.5127225 0 0 1 0.52038,0.39946 2.5127225,2.5127225 0 0 1 0.39946,0.52038 2.5127225,2.5127225 0 0 1 0.25063,0.60616 2.5127225,2.5127225 0 0 1 0.0858,0.65009 2.5127225,2.5127225 0 0 1 -0.73587,1.77664 2.5127225,2.5127225 0 0 1 -1.19321,0.49454 v 12.82144 a 2.5127225,2.5127225 0 0 1 0.0667,0.009 2.5127225,2.5127225 0 0 1 0.60617,0.25115 2.5127225,2.5127225 0 0 1 0.52038,0.39946 2.5127225,2.5127225 0 0 1 0.39946,0.52038 2.5127225,2.5127225 0 0 1 0.25063,0.60616 2.5127225,2.5127225 0 0 1 0.0858,0.65009 2.5127225,2.5127225 0 0 1 -0.73587,1.77663 2.5127225,2.5127225 0 0 1 -1.19321,0.49403 v 12.82196 a 2.5127225,2.5127225 0 0 1 0.0667,0.009 2.5127225,2.5127225 0 0 1 0.60617,0.25115 2.5127225,2.5127225 0 0 1 0.52038,0.39946 2.5127225,2.5127225 0 0 1 0.39946,0.52038 2.5127225,2.5127225 0 0 1 0.25063,0.60565 2.5127225,2.5127225 0 0 1 0.0858,0.6506 2.5127225,2.5127225 0 0 1 -0.73587,1.77664 2.5127225,2.5127225 0 0 1 -1.19321,0.49403 v 12.82195 a 2.5127225,2.5127225 0 0 1 0.0667,0.009 2.5127225,2.5127225 0 0 1 0.60617,0.25115 2.5127225,2.5127225 0 0 1 0.52038,0.39946 2.5127225,2.5127225 0 0 1 0.39946,0.52038 2.5127225,2.5127225 0 0 1 0.25063,0.60564 2.5127225,2.5127225 0 0 1 0.0858,0.65061 2.5127225,2.5127225 0 0 1 -0.73587,1.77664 2.5127225,2.5127225 0 0 1 -1.19321,0.49402 v 12.82196 a 2.5127225,2.5127225 0 0 1 0.0667,0.009 2.5127225,2.5127225 0 0 1 0.60617,0.25115 2.5127225,2.5127225 0 0 1 0.52038,0.39894 2.5127225,2.5127225 0 0 1 0.39946,0.52039 2.5127225,2.5127225 0 0 1 0.25063,0.60616 2.5127225,2.5127225 0 0 1 0.0858,0.65061 2.5127225,2.5127225 0 0 1 -0.73587,1.77663 2.5127225,2.5127225 0 0 1 -1.19321,0.49403 v 12.82196 a 2.5127225,2.5127225 0 0 1 0.0667,0.009 2.5127225,2.5127225 0 0 1 0.60617,0.25115 2.5127225,2.5127225 0 0 1 0.52038,0.39894 2.5127225,2.5127225 0 0 1 0.39946,0.52038 2.5127225,2.5127225 0 0 1 0.25063,0.60617 2.5127225,2.5127225 0 0 1 0.0858,0.6506 2.5127225,2.5127225 0 0 1 -0.73587,1.77664 2.5127225,2.5127225 0 0 1 -1.19321,0.49402 v 12.82196 a 2.5127225,2.5127225 0 0 1 0.0667,0.009 2.5127225,2.5127225 0 0 1 0.60617,0.25063 2.5127225,2.5127225 0 0 1 0.52038,0.39946 2.5127225,2.5127225 0 0 1 0.39946,0.52038 2.5127225,2.5127225 0 0 1 0.25063,0.60616 2.5127225,2.5127225 0 0 1 0.0858,0.65009 2.5127225,2.5127225 0 0 1 -0.73587,1.77715 2.5127225,2.5127225 0 0 1 -1.19321,0.49403 v 12.82144 a 2.5127225,2.5127225 0 0 1 0.0667,0.009 2.5127225,2.5127225 0 0 1 0.60617,0.25114 2.5127225,2.5127225 0 0 1 0.52038,0.39946 2.5127225,2.5127225 0 0 1 0.39946,0.52038 2.5127225,2.5127225 0 0 1 0.25063,0.60617 2.5127225,2.5127225 0 0 1 0.0858,0.65009 2.5127225,2.5127225 0 0 1 -0.73587,1.77663 2.5127225,2.5127225 0 0 1 -1.19321,0.49455 v 16.63051 c 0,0.19537 0.0787,0.3717 0.20619,0.49919 0.12749,0.12749 0.30382,0.20619 0.49919,0.20619 h 149.70766 c 0.19538,0 0.37171,-0.0787 0.4992,-0.20619 0.12748,-0.12749 0.20619,-0.30382 0.20619,-0.49919 v -69.20043 a 2.5127225,2.5127225 0 0 1 -1.44488,-0.59841 2.5127225,2.5127225 0 0 1 -0.73639,-1.77664 2.5127225,2.5127225 0 0 1 0.73639,-1.77664 2.5127225,2.5127225 0 0 1 1.44488,-0.59893 v -12.77803 a 2.5127225,2.5127225 0 0 1 -1.44488,-0.59841 2.5127225,2.5127225 0 0 1 -0.73639,-1.77664 2.5127225,2.5127225 0 0 1 0.73639,-1.77663 2.5127225,2.5127225 0 0 1 1.44488,-0.59893 v -12.77803 a 2.5127225,2.5127225 0 0 1 -1.44488,-0.59842 2.5127225,2.5127225 0 0 1 -0.73639,-1.77663 2.5127225,2.5127225 0 0 1 0.73639,-1.77664 2.5127225,2.5127225 0 0 1 1.44488,-0.59841 v -12.77935 a 2.5127225,2.5127225 0 0 1 -1.44488,-0.59893 2.5127225,2.5127225 0 0 1 -0.73639,-1.77664 2.5127225,2.5127225 0 0 1 0.73639,-1.77663 2.5127225,2.5127225 0 0 1 1.44488,-0.59841 v -32.14843 c 0,-0.19537 -0.0787,-0.37171 -0.20619,-0.49919 -0.12749,-0.12749 -0.30382,-0.20619 -0.4992,-0.20619 z"
         style="fill:#084d99;fill-opacity:1;fill-rule:evenodd;stroke:none;stroke-width:0.343958;stroke-linecap:round;stroke-miterlimit:16.5;paint-order:markers fill stroke"
         id="path2" /><path
         style="fill:#ffcc00;fill-opacity:1;fill-rule:evenodd;stroke:none;stroke-width:0.0381049;stroke-linecap:round;stroke-miterlimit:16.5;paint-order:markers fill stroke"
         d="m -913.76607,316.65914 c -0.0254,0.80916 -0.008,1.62705 -0.008,2.4396 0.0266,0.13958 -0.045,0.34105 0.0782,0.44236 0.59693,0.21508 1.13575,0.62925 1.42771,1.19775 0.31866,0.58379 0.37703,1.30178 0.1809,1.92864 -0.17925,0.52645 -0.50978,1.04348 -1.0397,1.26888 -0.20436,0.11104 -0.43633,0.15373 -0.64574,0.23901 -0.0115,0.90423 -0.003,1.81085 -0.005,2.716 0.10944,0.1146 0.33567,0.0179 0.4894,0.0497 0.77002,-0.008 1.54744,0.0166 2.31286,-0.0124 0.0554,-0.21759 0.007,-0.47798 0.0231,-0.71149 0,-3.1754 0,-6.3508 0,-9.52619 -0.10944,-0.11461 -0.33567,-0.0179 -0.4894,-0.0497 -0.77002,0.008 -1.54744,-0.0166 -2.31286,0.0124 z"
         id="path4" /><path
         style="fill:#ffcc00;fill-opacity:1;fill-rule:evenodd;stroke:none;stroke-width:0.0381049;stroke-linecap:round;stroke-miterlimit:16.5;paint-order:markers fill stroke"
         d="m -913.76607,334.1927 c -0.0254,0.80916 -0.008,1.62705 -0.008,2.4396 0.0266,0.13958 -0.045,0.34105 0.0782,0.44236 0.59693,0.21508 1.13575,0.62925 1.42771,1.19775 0.31866,0.58379 0.37703,1.30178 0.1809,1.92864 -0.17925,0.52645 -0.50978,1.04348 -1.0397,1.26887 -0.20436,0.11105 -0.43633,0.15374 -0.64574,0.23902 -0.0115,0.90422 -0.003,1.81084 -0.005,2.71599 0.10944,0.11461 0.33567,0.0179 0.4894,0.0497 0.77002,-0.008 1.54744,0.0166 2.31286,-0.0124 0.0554,-0.21759 0.007,-0.47798 0.0231,-0.71149 0,-3.1754 0,-6.35079 0,-9.52618 -0.10944,-0.11461 -0.33567,-0.0179 -0.4894,-0.0498 -0.77002,0.008 -1.54744,-0.0166 -2.31286,0.0124 z"
         id="path4-0" /><path
         style="fill:#ffcc00;fill-opacity:1;fill-rule:evenodd;stroke:none;stroke-width:0.0381049;stroke-linecap:round;stroke-miterlimit:16.5;paint-order:markers fill stroke"
         d="m -913.76607,351.72625 c -0.0254,0.80916 -0.008,1.62705 -0.008,2.4396 0.0266,0.13958 -0.045,0.34105 0.0782,0.44236 0.59693,0.21508 1.13575,0.62925 1.42771,1.19776 0.31866,0.58379 0.37703,1.30178 0.1809,1.92863 -0.17925,0.52646 -0.50978,1.04349 -1.0397,1.26888 -0.20436,0.11104 -0.43633,0.15374 -0.64574,0.23902 -0.0115,0.90422 -0.003,1.81084 -0.005,2.71599 0.10944,0.11461 0.33567,0.0179 0.4894,0.0498 0.77002,-0.008 1.54744,0.0166 2.31286,-0.0124 0.0554,-0.21759 0.007,-0.47798 0.0231,-0.71149 0,-3.1754 0,-6.35079 0,-9.52619 -0.10944,-0.11461 -0.33567,-0.0179 -0.4894,-0.0497 -0.77002,0.008 -1.54744,-0.0166 -2.31286,0.0124 z"
         id="path4-6" /><path
         style="fill:#ffcc00;fill-opacity:1;fill-rule:evenodd;stroke:none;stroke-width:0.0381049;stroke-linecap:round;stroke-miterlimit:16.5;paint-order:markers fill stroke"
         d="m -913.76607,369.25983 c -0.0254,0.80916 -0.008,1.62705 -0.008,2.4396 0.0266,0.13958 -0.045,0.34105 0.0782,0.44236 0.59693,0.21508 1.13575,0.62925 1.42771,1.19776 0.31866,0.58379 0.37703,1.30178 0.1809,1.92863 -0.17925,0.52646 -0.50978,1.04349 -1.0397,1.26888 -0.20436,0.11104 -0.43633,0.15374 -0.64574,0.23902 -0.0115,0.90422 -0.003,1.81084 -0.005,2.71599 0.10944,0.11461 0.33567,0.0179 0.4894,0.0497 0.77002,-0.008 1.54744,0.0166 2.31286,-0.0124 0.0554,-0.21759 0.007,-0.47798 0.0231,-0.71149 0,-3.1754 0,-6.35079 0,-9.52619 -0.10944,-0.11461 -0.33567,-0.0179 -0.4894,-0.0497 -0.77002,0.008 -1.54744,-0.0166 -2.31286,0.0124 z"
         id="path4-4" /><path
         style="fill:#ffcc00;fill-opacity:1;fill-rule:evenodd;stroke:none;stroke-width:0.0381049;stroke-linecap:round;stroke-miterlimit:16.5;paint-order:markers fill stroke"
         d="m -762.61547,334.28106 c 0.0254,0.80916 0.008,1.62705 0.008,2.43959 -0.0266,0.13959 0.045,0.34106 -0.0782,0.44237 -0.59693,0.21508 -1.13575,0.62924 -1.42771,1.19775 -0.31866,0.58379 -0.37703,1.30178 -0.1809,1.92864 0.17925,0.52645 0.50978,1.04348 1.0397,1.26888 0.20436,0.11104 0.43633,0.15373 0.64574,0.23901 0.0115,0.90423 0.003,1.81085 0.005,2.716 -0.10944,0.11461 -0.33567,0.0179 -0.4894,0.0498 -0.77002,-0.008 -1.54744,0.0166 -2.31286,-0.0124 -0.0554,-0.21759 -0.007,-0.47798 -0.0231,-0.71149 0,-3.1754 0,-6.3508 0,-9.5262 0.10944,-0.1146 0.33567,-0.0179 0.4894,-0.0498 0.77002,0.008 1.54744,-0.0166 2.31286,0.0124 z"
         id="path4-1" /><path
         style="fill:#ffcc00;fill-opacity:1;fill-rule:evenodd;stroke:none;stroke-width:0.0381049;stroke-linecap:round;stroke-miterlimit:16.5;paint-order:markers fill stroke"
         d="m -762.61547,351.81462 c 0.0254,0.80916 0.008,1.62705 0.008,2.4396 -0.0266,0.13958 0.045,0.34105 -0.0782,0.44236 -0.59693,0.21508 -1.13575,0.62925 -1.42771,1.19776 -0.31866,0.58378 -0.37703,1.30177 -0.1809,1.92864 0.17925,0.52645 0.50978,1.04348 1.0397,1.26887 0.20436,0.11105 0.43633,0.15374 0.64574,0.23902 0.0115,0.90422 0.003,1.81084 0.005,2.71599 -0.10944,0.11461 -0.33567,0.0179 -0.4894,0.0497 -0.77002,-0.008 -1.54744,0.0166 -2.31286,-0.0124 -0.0554,-0.21759 -0.007,-0.47798 -0.0231,-0.71149 0,-3.1754 0,-6.35079 0,-9.52619 0.10944,-0.11461 0.33567,-0.0179 0.4894,-0.0498 0.77002,0.008 1.54744,-0.0166 2.31286,0.0124 z"
         id="path4-0-7" /><path
         style="fill:#ffcc00;fill-opacity:1;fill-rule:evenodd;stroke:none;stroke-width:0.0381049;stroke-linecap:round;stroke-miterlimit:16.5;paint-order:markers fill stroke"
         d="m -762.61547,369.34818 c 0.0254,0.80916 0.008,1.62704 0.008,2.43959 -0.0266,0.13958 0.045,0.34105 -0.0782,0.44236 -0.59693,0.21508 -1.13575,0.62925 -1.42771,1.19776 -0.31866,0.58379 -0.37703,1.30178 -0.1809,1.92863 0.17925,0.52646 0.50978,1.0435 1.0397,1.26888 0.20436,0.11104 0.43633,0.15374 0.64574,0.23902 0.0115,0.90422 0.003,1.81084 0.005,2.71599 -0.10944,0.11461 -0.33567,0.0179 -0.4894,0.0498 -0.77002,-0.008 -1.54744,0.0166 -2.31286,-0.0124 -0.0554,-0.21759 -0.007,-0.47798 -0.0231,-0.71149 0,-3.1754 0,-6.35079 0,-9.52619 0.10944,-0.1146 0.33567,-0.0179 0.4894,-0.0497 0.77002,0.008 1.54744,-0.0166 2.31286,0.0124 z"
         id="path4-6-2" /><path
         style="fill:#ffcc00;fill-opacity:1;fill-rule:evenodd;stroke:none;stroke-width:0.0381049;stroke-linecap:round;stroke-miterlimit:16.5;paint-order:markers fill stroke"
         d="m -762.61547,386.88175 c 0.0254,0.80916 0.008,1.62705 0.008,2.4396 -0.0266,0.13958 0.045,0.34105 -0.0782,0.44236 -0.59693,0.21508 -1.13575,0.62926 -1.42771,1.19776 -0.31866,0.58379 -0.37703,1.30178 -0.1809,1.92863 0.17925,0.52646 0.50978,1.04349 1.0397,1.26888 0.20436,0.11104 0.43633,0.15374 0.64574,0.23902 0.0115,0.90422 0.003,1.81085 0.005,2.71599 -0.10944,0.11461 -0.33567,0.0179 -0.4894,0.0497 -0.77002,-0.008 -1.54744,0.0166 -2.31286,-0.0124 -0.0554,-0.21759 -0.007,-0.47798 -0.0231,-0.71149 0,-3.1754 0,-6.35079 0,-9.52619 0.10944,-0.11461 0.33567,-0.0179 0.4894,-0.0497 0.77002,0.008 1.54744,-0.0166 2.31286,0.0124 z"
         id="path4-4-5" /><path
         style="fill:#ffcc00;fill-opacity:1;fill-rule:evenodd;stroke:none;stroke-width:0.0381049;stroke-linecap:round;stroke-miterlimit:16.5;paint-order:markers fill stroke"
         d="m -913.76607,386.7934 c -0.0254,0.80916 -0.008,1.62705 -0.008,2.43959 0.0266,0.13959 -0.045,0.34106 0.0782,0.44237 0.59693,0.21508 1.13575,0.62924 1.42771,1.19775 0.31866,0.58379 0.37703,1.30178 0.1809,1.92864 -0.17925,0.52645 -0.50978,1.04348 -1.0397,1.26887 -0.20436,0.11105 -0.43633,0.15374 -0.64574,0.23902 -0.0115,0.90422 -0.003,1.81085 -0.005,2.71599 0.10944,0.11461 0.33567,0.0179 0.4894,0.0497 0.77002,-0.008 1.54744,0.0166 2.31286,-0.0124 0.0554,-0.21758 0.007,-0.47798 0.0231,-0.71149 0,-3.17539 0,-6.35079 0,-9.52619 -0.10944,-0.1146 -0.33567,-0.0179 -0.4894,-0.0497 -0.77002,0.008 -1.54744,-0.0166 -2.31286,0.0124 z"
         id="path4-5" /><path
         style="fill:#ffcc00;fill-opacity:1;fill-rule:evenodd;stroke:none;stroke-width:0.0381049;stroke-linecap:round;stroke-miterlimit:16.5;paint-order:markers fill stroke"
         d="m -913.76607,404.32696 c -0.0254,0.80916 -0.008,1.62705 -0.008,2.4396 0.0266,0.13958 -0.045,0.34105 0.0782,0.44236 0.59693,0.21508 1.13575,0.62925 1.42771,1.19776 0.31866,0.58378 0.37703,1.30177 0.1809,1.92863 -0.17925,0.52645 -0.50978,1.04348 -1.0397,1.26888 -0.20436,0.11104 -0.43633,0.15373 -0.64574,0.23901 -0.0115,0.90423 -0.003,1.81085 -0.005,2.716 0.10944,0.11461 0.33567,0.0179 0.4894,0.0497 0.77002,-0.008 1.54744,0.0166 2.31286,-0.0124 0.0554,-0.21759 0.007,-0.47798 0.0231,-0.71149 0,-3.1754 0,-6.35079 0,-9.52619 -0.10944,-0.11461 -0.33567,-0.0179 -0.4894,-0.0497 -0.77002,0.008 -1.54744,-0.0166 -2.31286,0.0124 z"
         id="path4-61" /><path
         style="fill:#ffcc00;fill-opacity:1;fill-rule:evenodd;stroke:none;stroke-width:0.0381049;stroke-linecap:round;stroke-miterlimit:16.5;paint-order:markers fill stroke"
         d="m -913.76607,421.86053 c -0.0254,0.80916 -0.008,1.62705 -0.008,2.4396 0.0266,0.13959 -0.045,0.34106 0.0782,0.44236 0.59693,0.21509 1.13575,0.62925 1.42771,1.19776 0.31866,0.58379 0.37703,1.30178 0.1809,1.92863 -0.17925,0.52646 -0.50978,1.04349 -1.0397,1.26888 -0.20436,0.11105 -0.43633,0.15374 -0.64574,0.23902 -0.0115,0.90422 -0.003,1.81084 -0.005,2.71599 0.10944,0.11461 0.33567,0.0179 0.4894,0.0497 0.77002,-0.008 1.54744,0.0166 2.31286,-0.0124 0.0554,-0.21758 0.007,-0.47798 0.0231,-0.71149 0,-3.1754 0,-6.35079 0,-9.52619 -0.10944,-0.1146 -0.33567,-0.0179 -0.4894,-0.0497 -0.77002,0.008 -1.54744,-0.0166 -2.31286,0.0124 z"
         id="path4-7" /><path
         style="fill:#ffcc00;fill-opacity:1;fill-rule:evenodd;stroke:none;stroke-width:0.0381049;stroke-linecap:round;stroke-miterlimit:16.5;paint-order:markers fill stroke"
         d="m -913.76607,439.3941 c -0.0254,0.80915 -0.008,1.62704 -0.008,2.43959 0.0266,0.13959 -0.045,0.34105 0.0782,0.44236 0.59693,0.21509 1.13575,0.62925 1.42771,1.19776 0.31866,0.58379 0.37703,1.30178 0.1809,1.92863 -0.17925,0.52646 -0.50978,1.04349 -1.0397,1.26888 -0.20436,0.11105 -0.43633,0.15374 -0.64574,0.23902 -0.0115,0.90422 -0.003,1.81084 -0.005,2.71599 0.10944,0.11461 0.33567,0.0179 0.4894,0.0498 0.77002,-0.008 1.54744,0.0166 2.31286,-0.0124 0.0554,-0.21758 0.007,-0.47798 0.0231,-0.71149 0,-3.1754 0,-6.35079 0,-9.52619 -0.10944,-0.1146 -0.33567,-0.0179 -0.4894,-0.0498 -0.77002,0.008 -1.54744,-0.0166 -2.31286,0.0124 z"
         id="path4-9" /><path
         d="m -618.43822,441.16067 v 143.33854 a 4.7625,4.7625 45 0 0 4.7625,4.7625 h 71.44008 a 4.7625,4.7625 135 0 0 4.7625,-4.7625 v -37.90777 a 4.7625,4.7625 135 0 1 4.7625,-4.7625 h 45.66595 a 4.7625,4.7625 135 0 0 4.7625,-4.7625 l 0,-95.90577 a 4.7625,4.7625 45 0 0 -4.7625,-4.7625 h -126.63103 a 4.7625,4.7625 135 0 0 -4.7625,4.7625 z"
         style="fill:#ffffff;fill-opacity:0.964539;fill-rule:evenodd;stroke-width:0.343958;stroke-linecap:round;stroke-miterlimit:16.5;paint-order:markers fill stroke"
         id="path5"
         inkscape:path-effect="#path-effect5"
         inkscape:original-d="m -618.43822,436.39817 v 152.86354 h 80.96508 v -47.43277 h 55.19095 V 436.39817 Z"
         transform="translate(-287.3375,-128.5875)" /><g
         id="layer-MC0"
         inkscape:label="图层 1"
         transform="matrix(0.34064279,0,0,0.34064279,-907.31401,306.09417)"><path
           id="path1"
           d="m 0,0 c 0,1.609 2.636,5.134 6.744,5.134 3.678,0 6.745,-3.533 6.745,-5.134 z M 6.571,10.416 C 0,10.416 -6.376,5.406 -6.376,-2.773 c 0,-6.387 5.04,-12.614 12.73,-12.614 6.442,0 9.701,3.788 10.656,5.274 l -5.376,1.948 c -0.049,-0.067 -0.743,-0.677 -1.359,-1.023 -1.009,-0.565 -2.285,-0.97 -3.531,-0.97 -4.286,0 -6.965,3.311 -6.965,5.352 h 1.102 11.723 2.906 3.324 c 0,0 0.201,0.887 0.201,2.274 0,5.642 -3.87,12.948 -12.464,12.948"
           style="fill:#000000;fill-opacity:1;fill-rule:nonzero;stroke:none"
           transform="matrix(1.3333333,0,0,-1.3333333,63.269467,42.7956)"
           clip-path="url(#clipPath2)" /><path
           id="path3"
           d="m 0,0 c 0,1.609 2.636,5.134 6.744,5.134 3.678,0 6.744,-3.533 6.744,-5.134 z M 6.571,10.416 C 0,10.416 -6.376,5.406 -6.376,-2.773 c 0,-6.387 5.039,-12.614 12.73,-12.614 6.442,0 9.701,3.788 10.656,5.274 l -5.376,1.948 c -0.048,-0.067 -0.743,-0.677 -1.359,-1.023 -1.009,-0.565 -2.285,-0.97 -3.531,-0.97 -4.286,0 -6.965,3.311 -6.965,5.352 h 1.102 11.722 2.907 3.324 c 0,0 0.201,0.887 0.201,2.274 0,5.642 -3.87,12.948 -12.464,12.948"
           style="fill:#000000;fill-opacity:1;fill-rule:nonzero;stroke:none"
           transform="matrix(1.3333333,0,0,-1.3333333,100.7748,42.7956)"
           clip-path="url(#clipPath4)" /><path
           id="path5-4"
           d="m 0,0 c 0,1.609 2.636,5.134 6.745,5.134 3.677,0 6.744,-3.533 6.744,-5.134 z M 6.572,10.416 C 0,10.416 -6.376,5.406 -6.376,-2.773 c 0,-6.387 5.04,-12.614 12.73,-12.614 6.443,0 9.701,3.788 10.656,5.274 l -5.376,1.948 c -0.048,-0.067 -0.743,-0.677 -1.359,-1.023 -1.009,-0.565 -2.284,-0.97 -3.53,-0.97 -4.287,0 -6.966,3.311 -6.966,5.352 h 1.102 11.723 2.907 3.323 c 0,0 0.201,0.887 0.201,2.274 0,5.642 -3.87,12.948 -12.463,12.948"
           style="fill:#000000;fill-opacity:1;fill-rule:nonzero;stroke:none"
           transform="matrix(1.3333333,0,0,-1.3333333,138.27933,42.7956)"
           clip-path="url(#clipPath6)" /><path
           id="path7"
           d="m 0,0 c -0.378,-0.931 -0.909,-1.753 -1.595,-2.468 -0.689,-0.713 -1.488,-1.281 -2.412,-1.697 -0.924,-0.414 -1.927,-0.622 -3.015,-0.622 -1.144,0 -2.174,0.215 -3.095,0.644 -0.923,0.426 -1.722,1.006 -2.391,1.731 -0.678,0.725 -1.195,1.544 -1.56,2.452 -0.361,0.908 -0.544,1.856 -0.544,2.842 0,0.959 0.183,1.899 0.544,2.823 0.365,0.92 0.876,1.734 1.535,2.452 0.663,0.711 1.463,1.284 2.395,1.706 0.933,0.433 1.972,0.645 3.116,0.645 1.139,0 2.177,-0.212 3.114,-0.645 0.935,-0.422 1.731,-0.995 2.39,-1.706 C -0.858,7.439 -0.343,6.63 0.018,5.723 0.386,4.815 0.563,3.879 0.563,2.921 0.563,1.906 0.377,0.936 0,0 m 5.196,7.888 c -0.679,1.562 -1.619,2.928 -2.812,4.091 -1.198,1.165 -2.6,2.085 -4.209,2.769 -1.609,0.676 -3.341,1.016 -5.196,1.016 -1.921,0 -3.681,-0.347 -5.289,-1.064 -1.612,-0.704 -3.007,-1.647 -4.186,-2.807 -1.179,-1.167 -2.105,-2.516 -2.77,-4.049 -0.659,-1.533 -0.994,-3.142 -0.994,-4.83 0,-1.564 0.302,-3.116 0.91,-4.667 0.605,-1.547 1.475,-2.944 2.613,-4.186 1.132,-1.233 2.522,-2.246 4.158,-3.032 1.639,-0.779 3.493,-1.171 5.558,-1.171 2.066,0 3.925,0.399 5.579,1.196 1.649,0.799 3.032,1.815 4.158,3.053 1.119,1.237 1.984,2.629 2.589,4.162 0.603,1.534 0.908,3.055 0.908,4.561 0,1.74 -0.338,3.39 -1.017,4.958"
           style="fill:#000000;fill-opacity:1;fill-rule:nonzero;stroke:none"
           transform="matrix(1.3333333,0,0,-1.3333333,376.97267,49.921867)"
           clip-path="url(#clipPath8)" /><path
           id="path9"
           d="m 0,0 -5.45,-1.448 v -19.393 c 0,-5.033 3.165,-7.919 8.684,-7.919 v 5.449 C 0,-23.311 0,-22.221 0,-20.841 v 9.421 h 3.234 v 5.45 L 0,-5.97 Z"
           style="fill:#000000;fill-opacity:1;fill-rule:nonzero;stroke:none"
           transform="matrix(1.3333333,0,0,-1.3333333,256.5996,24.9772)"
           clip-path="url(#clipPath10)" /><path
           id="path11"
           d="m 0,0 c 0,-3.504 -2.111,-5.682 -5.51,-5.682 -3.244,0 -5.511,2.325 -5.511,5.654 v 14.652 l -5.45,-1.458 V -0.028 c 0,-6.33 4.712,-11.104 10.961,-11.104 6.453,0 10.961,4.577 10.961,11.132 V 14.611 L 0,13.158 Z"
           style="fill:#000000;fill-opacity:1;fill-rule:nonzero;stroke:none"
           transform="matrix(1.3333333,0,0,-1.3333333,286.49613,48.469333)"
           clip-path="url(#clipPath12)" /><path
           id="path13"
           d="m 0,0 c 0,1.57 1.321,2.853 4.741,2.853 2.212,0 4.753,-0.718 7.07,-2.039 l 0.068,0.189 1.561,4.274 c -2.316,1.46 -5.524,2.209 -8.662,2.209 -7.094,0 -10.516,-3.53 -10.516,-7.771 0,-9.268 14.508,-6.061 14.508,-10.731 0,-1.533 -1.391,-2.673 -4.813,-2.673 -2.993,0 -6.323,1.087 -8.549,2.816 l -0.16,-0.442 -1.486,-4.122 c 2.209,-1.71 6.203,-2.886 10.16,-2.886 7.129,0 10.589,3.565 10.589,7.737 C 14.511,-1.425 0,-4.598 0,0"
           style="fill:#000000;fill-opacity:1;fill-rule:nonzero;stroke:none"
           transform="matrix(1.3333333,0,0,-1.3333333,31.7956,38.8808)"
           clip-path="url(#clipPath14)" /><path
           id="path15"
           d="m 0,0 c 0,1.57 1.321,2.853 4.741,2.853 2.211,0 4.753,-0.718 7.07,-2.039 l 0.068,0.189 1.561,4.274 c -2.316,1.46 -5.524,2.209 -8.662,2.209 -7.094,0 -10.516,-3.53 -10.516,-7.771 0,-9.268 14.508,-6.061 14.508,-10.731 0,-1.533 -1.391,-2.673 -4.813,-2.673 -2.993,0 -6.323,1.087 -8.549,2.816 l -0.161,-0.442 -1.485,-4.122 c 2.209,-1.71 6.203,-2.886 10.16,-2.886 7.129,0 10.589,3.565 10.589,7.737 C 14.511,-1.425 0,-4.598 0,0"
           style="fill:#000000;fill-opacity:1;fill-rule:nonzero;stroke:none"
           transform="matrix(1.3333333,0,0,-1.3333333,226.36067,38.8808)"
           clip-path="url(#clipPath16)" /><path
           id="path17"
           d="m 254.316,18.646 h 5.436 v 22.791 h -5.436 z"
           style="fill:#000000;fill-opacity:1;fill-rule:nonzero;stroke:none"
           transform="matrix(1.3333333,0,0,-1.3333333,0,88.172533)"
           clip-path="url(#clipPath18)" /><path
           id="path19"
           d="m 254.316,44.452 h 5.436 v 4.524 h -5.436 z"
           style="fill:#000000;fill-opacity:1;fill-rule:nonzero;stroke:none"
           transform="matrix(1.3333333,0,0,-1.3333333,0,88.172533)"
           clip-path="url(#clipPath20)" /><path
           id="path21"
           d="m 0,0 c -0.377,-0.931 -0.91,-1.753 -1.595,-2.468 -0.689,-0.713 -1.489,-1.281 -2.412,-1.697 -0.924,-0.413 -1.927,-0.622 -3.015,-0.622 -1.144,0 -2.174,0.215 -3.095,0.644 -0.924,0.426 -1.722,1.006 -2.391,1.731 -0.678,0.725 -1.195,1.544 -1.56,2.452 -0.362,0.909 -0.544,1.856 -0.544,2.842 0,0.959 0.182,1.899 0.544,2.823 0.365,0.92 0.876,1.735 1.535,2.452 0.663,0.711 1.463,1.284 2.395,1.706 0.933,0.433 1.972,0.645 3.116,0.645 1.139,0 2.177,-0.212 3.114,-0.645 C -2.973,9.441 -2.177,8.868 -1.517,8.157 -0.858,7.44 -0.343,6.63 0.018,5.723 0.385,4.815 0.563,3.879 0.563,2.921 0.563,1.906 0.376,0.936 0,0 m 1.449,12.805 c -0.975,0.783 -2.067,1.43 -3.275,1.943 -1.608,0.676 -3.34,1.016 -5.195,1.016 -1.921,0 -3.681,-0.347 -5.289,-1.064 -1.612,-0.704 -3.007,-1.647 -4.186,-2.807 -1.18,-1.167 -2.106,-2.516 -2.77,-4.049 -0.659,-1.533 -0.994,-3.142 -0.994,-4.83 0,-1.564 0.302,-3.116 0.91,-4.667 0.605,-1.547 1.475,-2.944 2.613,-4.186 1.132,-1.233 2.522,-2.246 4.158,-3.032 1.639,-0.779 3.492,-1.171 5.558,-1.171 2.066,0 3.925,0.399 5.578,1.196 1.082,0.524 2.037,1.151 2.892,1.863 v -3.059 H 6.938 V 20.269 L 1.449,18.786 Z"
           style="fill:#000000;fill-opacity:1;fill-rule:nonzero;stroke:none"
           transform="matrix(1.3333333,0,0,-1.3333333,194.29627,49.934933)"
           clip-path="url(#clipPath22)" /><path
           id="path23"
           d="m 0,0 c -0.377,-0.931 -0.91,-1.753 -1.595,-2.468 -0.689,-0.713 -1.488,-1.281 -2.412,-1.697 -0.924,-0.413 -1.927,-0.622 -3.015,-0.622 -1.144,0 -2.174,0.215 -3.095,0.644 -0.924,0.426 -1.722,1.006 -2.391,1.731 -0.678,0.725 -1.195,1.544 -1.56,2.452 -0.362,0.909 -0.544,1.856 -0.544,2.842 0,0.959 0.182,1.899 0.544,2.823 0.365,0.92 0.876,1.735 1.534,2.452 0.664,0.711 1.464,1.284 2.396,1.706 0.933,0.433 1.972,0.645 3.116,0.645 1.139,0 2.177,-0.212 3.114,-0.645 C -2.973,9.441 -2.177,8.868 -1.517,8.157 -0.859,7.44 -0.343,6.63 0.018,5.723 0.385,4.815 0.563,3.879 0.563,2.921 0.563,1.906 0.376,0.936 0,0 m 1.449,12.805 c -0.975,0.783 -2.066,1.43 -3.274,1.943 -1.609,0.676 -3.341,1.016 -5.196,1.016 -1.921,0 -3.681,-0.347 -5.289,-1.064 -1.612,-0.704 -3.007,-1.647 -4.186,-2.807 -1.18,-1.167 -2.106,-2.516 -2.77,-4.049 -0.659,-1.533 -0.994,-3.142 -0.994,-4.83 0,-1.564 0.302,-3.116 0.91,-4.667 0.605,-1.547 1.475,-2.944 2.613,-4.186 1.132,-1.233 2.522,-2.246 4.158,-3.032 1.638,-0.779 3.492,-1.171 5.558,-1.171 2.066,0 3.924,0.399 5.578,1.196 1.082,0.524 2.037,1.151 2.892,1.863 v -3.059 H 6.938 V 20.257 L 1.449,18.786 Z"
           style="fill:#000000;fill-opacity:1;fill-rule:nonzero;stroke:none"
           transform="matrix(1.3333333,0,0,-1.3333333,324.4004,49.934933)"
           clip-path="url(#clipPath24)" /></g><path
         d="m -895.20464,343.50984 2.61255,-9.99431 h 1.22737 l 2.61255,9.99431 2.2531,-9.99431 h 1.8586 l -3.11227,12.74713 h -1.82352 l -2.34954,-8.90721 -2.45475,8.90721 h -1.82352 l -3.11227,-12.74713 h 1.85859 z m 12.22989,-8.20585 v -1.78846 h 1.78845 v 1.78846 z m 0,10.95867 v -9.10008 h 1.78845 v 9.10008 z m 7.99545,0.13151 q -1.78846,0 -2.77036,-1.0345 -0.98189,-1.04327 -0.98189,-2.92816 v -1.48161 q 0,-1.86736 0.98189,-2.89309 0.9819,-1.02574 2.77036,-1.02574 1.78846,0 2.77035,1.02574 0.9819,1.02573 0.9819,2.89309 v 1.50791 q 0,1.87613 -0.9819,2.91063 -0.98189,1.02573 -2.77035,1.02573 z m 0,-1.70079 q 0.93806,0 1.44654,-0.58738 0.51725,-0.58739 0.51725,-1.64819 v -1.50791 q 0,-1.0608 -0.51725,-1.63942 -0.50848,-0.57862 -1.44654,-0.57862 -0.9293,0 -1.44655,0.57862 -0.51725,0.57862 -0.51725,1.63942 v 1.50791 q 0,1.0608 0.51725,1.64819 0.51725,0.58738 1.44655,0.58738 z m 6.29466,-3.84869 h 5.89139 v 1.70079 h -5.89139 z m 12.61563,5.54948 q -0.92929,0 -1.75338,-0.17534 -0.81533,-0.17534 -1.53422,-0.52602 -0.71012,-0.35067 -1.33258,-0.87669 v 0 l 1.11341,-1.36764 v 0 q 0.72765,0.63122 1.60435,0.94683 0.87669,0.31561 1.90242,0.31561 1.38518,0 2.1479,-0.51725 0.76273,-0.51725 0.76273,-1.44655 v -0.009 q 0,-0.72765 -0.38575,-1.1134 -0.38574,-0.38574 -1.01696,-0.56985 -0.62245,-0.19287 -1.36765,-0.31561 -0.71888,-0.12274 -1.45531,-0.28931 -0.72765,-0.16657 -1.34134,-0.51725 -0.61369,-0.35944 -0.99066,-1.02573 -0.36822,-0.66629 -0.36822,-1.77969 v -0.009 q 0,-1.77969 1.18354,-2.75282 1.18354,-0.9819 3.34021,-0.9819 1.02573,0 2.00763,0.33315 0.98189,0.32438 1.91119,0.99943 v 0 l -1.01697,1.42024 v 0 q -0.72765,-0.54355 -1.45531,-0.80655 -0.71889,-0.26301 -1.44654,-0.26301 -1.30628,0 -2.03393,0.52601 -0.71889,0.51725 -0.71889,1.47285 v 0.009 q 0,0.71889 0.42081,1.09587 0.42081,0.37697 1.09587,0.56108 0.68382,0.17534 1.46408,0.33314 0.70135,0.14028 1.40271,0.34191 0.70135,0.19288 1.2712,0.56986 0.57862,0.36821 0.92053,1.01696 0.35068,0.64876 0.35068,1.69202 v 0.0175 q 0,1.76215 -1.22737,2.72652 -1.22737,0.96436 -3.45418,0.96436 z m 13.38713,-0.13151 -3.31391,-5.60207 -0.27177,-0.43835 -4.138,-6.70671 h 2.00763 l 3.0772,5.19003 0.28931,0.47341 4.35717,7.08369 z m -7.82888,0 4.43607,-7.28533 3.19994,-5.4618 h 2.00763 l -4.2169,6.89958 -3.41911,5.84755 z m 14.40409,-12.74713 v 12.74713 h -1.78846 v -10.80087 l -1.81476,1.1134 v -1.84982 l 1.81476,-1.20984 z m 2.70021,12.74713 v -1.55174 l 4.44484,-5.92646 q 0.38575,-0.50848 0.59616,-1.05203 0.21917,-0.54355 0.21917,-1.02573 v -0.0175 q 0,-0.76272 -0.44711,-1.18353 -0.44712,-0.42082 -1.27121,-0.42082 -0.77149,0 -1.26244,0.46465 -0.48218,0.45588 -0.58739,1.29751 v 0.009 h -1.84982 v -0.009 q 0.23671,-1.64819 1.20107,-2.55118 0.96436,-0.91177 2.48104,-0.91177 1.71833,0 2.65639,0.86793 0.93806,0.86793 0.93806,2.45475 v 0.009 q 0,0.67506 -0.28054,1.42025 -0.28054,0.73642 -0.78026,1.41148 l -3.69088,5.01469 h 4.82182 v 1.70078 z m 12.22989,0.13151 q -1.69202,0 -2.62131,-1.0082 -0.9293,-1.0082 -0.9293,-2.84049 v -0.009 q 0,-0.82409 0.22794,-1.74462 0.22794,-0.92929 0.65752,-1.78845 l 2.77036,-5.48811 h 1.92872 l -3.25253,6.35603 0.009,-0.31561 q 0.45589,-0.86792 1.62189,-0.86792 1.49915,0 2.32324,0.99943 0.82409,0.99066 0.82409,2.80542 v 0.009 q 0,1.84982 -0.92929,2.87555 -0.9293,1.01697 -2.63009,1.01697 z m 0,-1.71832 q 0.85916,0 1.31504,-0.52602 0.45589,-0.52602 0.45589,-1.49915 v -0.009 q 0,-1.06957 -0.48219,-1.64819 -0.48218,-0.58738 -1.37641,-0.58738 -0.79779,0 -1.23614,0.58738 -0.43834,0.58739 -0.43834,1.65695 v 0.009 q 0,0.97313 0.45588,1.49915 0.46465,0.51725 1.30627,0.51725 z m 5.73358,1.58681 v -1.55174 l 4.44484,-5.92646 q 0.38575,-0.50848 0.59616,-1.05203 0.21917,-0.54355 0.21917,-1.02573 v -0.0175 q 0,-0.76272 -0.44711,-1.18353 -0.44712,-0.42082 -1.27121,-0.42082 -0.77149,0 -1.26244,0.46465 -0.48218,0.45588 -0.58739,1.29751 v 0.009 h -1.84982 v -0.009 q 0.23671,-1.64819 1.20107,-2.55118 0.96436,-0.91177 2.48105,-0.91177 1.71832,0 2.65638,0.86793 0.93806,0.86793 0.93806,2.45475 v 0.009 q 0,0.67506 -0.28054,1.42025 -0.28054,0.73642 -0.78026,1.41148 l -3.69088,5.01469 h 4.82182 v 1.70078 z"
         id="text5"
         style="font-size:17.9547px;line-height:1.45;font-family:Bahnschrift;-inkscape-font-specification:Bahnschrift;word-spacing:0px;stroke-width:0.47505"
         aria-label="Wio-SX1262" /><path
         d="m -899.31629,360.64975 v -8.44946 h 1.18548 v 8.44946 z m 0.58112,-3.55644 v -1.12737 h 4.09688 v 1.12737 z m 0,-3.76565 v -1.12737 h 4.73611 v 1.12737 z m 8.8388,7.40926 q -0.8833,0 -1.54577,-0.38935 -0.66248,-0.39516 -1.02858,-1.10413 -0.3661,-0.70896 -0.3661,-1.65618 v -2.31866 q 0,-0.95304 0.3661,-1.662 0.3661,-0.70897 1.02858,-1.09832 0.66247,-0.39516 1.54577,-0.39516 0.73221,0 1.33658,0.31381 0.61017,0.3138 1.01695,0.87749 0.4126,0.56368 0.55788,1.31913 v 0 h -1.21454 v 0 q -0.11041,-0.40678 -0.37192,-0.70896 -0.25569,-0.30799 -0.60436,-0.47652 -0.34867,-0.16852 -0.72059,-0.16852 -0.77869,0 -1.25521,0.55206 -0.47071,0.54625 -0.47071,1.44699 v 2.31866 q 0,0.90073 0.47071,1.44698 0.47652,0.54625 1.25521,0.54625 0.55207,0 1.04021,-0.34867 0.48813,-0.34867 0.65666,-1.00533 v 0 h 1.21454 v 0 q -0.14528,0.75545 -0.55788,1.31914 -0.41259,0.56368 -1.01695,0.87748 -0.60437,0.31381 -1.33658,0.31381 z m 7.13032,0 q -0.8833,0 -1.54577,-0.38935 -0.66248,-0.39516 -1.02858,-1.10413 -0.3661,-0.70896 -0.3661,-1.65618 v -2.31866 q 0,-0.95304 0.3661,-1.662 0.3661,-0.70897 1.02858,-1.09832 0.66247,-0.39516 1.54577,-0.39516 0.73221,0 1.33658,0.31381 0.61017,0.3138 1.01695,0.87749 0.4126,0.56368 0.55788,1.31913 v 0 h -1.21454 v 0 q -0.11041,-0.40678 -0.37192,-0.70896 -0.25569,-0.30799 -0.60436,-0.47652 -0.34867,-0.16852 -0.72059,-0.16852 -0.77869,0 -1.25521,0.55206 -0.47071,0.54625 -0.47071,1.44699 v 2.31866 q 0,0.90073 0.47071,1.44698 0.47652,0.54625 1.25521,0.54625 0.55207,0 1.04021,-0.34867 0.48813,-0.34867 0.65666,-1.00533 v 0 h 1.21454 v 0 q -0.14528,0.75545 -0.55788,1.31914 -0.41259,0.56368 -1.01695,0.87748 -0.60437,0.31381 -1.33658,0.31381 z m 8.97828,-8.53663 v 8.44946 h -1.18548 v -8.44946 z m 2.89397,8.44946 v -1.12737 h 1.91188 q 0.9356,0 1.44698,-0.48233 0.5172,-0.48814 0.5172,-1.37144 v -2.48718 q 0,-0.8833 -0.5172,-1.36563 -0.51138,-0.48814 -1.44698,-0.48814 h -1.91188 v -1.12737 h 1.87701 q 1.53415,0 2.37096,0.79613 0.84262,0.79032 0.84262,2.2315 v 2.3942 q 0,0.95885 -0.37772,1.63876 -0.37773,0.67409 -1.09832,1.03439 -0.72058,0.35448 -1.74335,0.35448 z m -0.80194,0 v -8.44946 h 1.18548 v 8.44946 z m 7.14194,0 v -1.24359 h 1.24359 v 1.24359 z m 0,-4.84653 v -1.24359 h 1.24359 v 1.24359 z m 8.15308,-3.60293 v 1.02277 l -3.67847,6.29932 h 3.7947 v 1.12737 h -5.25331 v -1.02277 l 3.70753,-6.29932 h -3.60293 v -1.12737 z m 1.39469,7.15357 v -1.02858 l 2.83586,-6.11918 h 1.22035 l -2.76613,6.04944 h 4.14338 v 1.09832 z m 3.64361,1.3017 v -4.97437 h 1.15643 v 4.97437 z m 4.64313,-0.006 v -7.75793 h 1.18548 v 7.75793 z m -2.38839,-7.32209 v -1.12737 h 5.96227 v 1.12737 z m 6.77584,2.6499 h 3.90511 v 1.12737 h -3.90511 z m 7.50223,2.84748 1.73174,-6.62475 h 0.81356 l 1.73173,6.62475 1.49348,-6.62475 h 1.23197 l -2.06297,8.44946 h -1.20873 l -1.55739,-5.90416 -1.62713,5.90416 h -1.20873 l -2.06297,-8.44946 h 1.23197 z m 9.46642,-6.62475 v 8.44946 h -1.18549 v -8.44946 z m 4.8872,8.53663 q -0.89492,0 -1.5632,-0.38354 -0.66829,-0.38935 -1.04021,-1.0925 -0.3661,-0.70316 -0.3661,-1.63876 v -2.3942 q 0,-0.94141 0.3661,-1.63876 0.37192,-0.70315 1.04021,-1.08669 0.66828,-0.38935 1.5632,-0.38935 0.89493,0 1.56321,0.38935 0.66829,0.38354 1.03439,1.08669 0.37192,0.69735 0.37192,1.63876 v 2.3942 q 0,0.9356 -0.37192,1.63876 -0.3661,0.70315 -1.03439,1.0925 -0.66828,0.38354 -1.56321,0.38354 z m 0,-1.16805 q 0.79614,0 1.27265,-0.52301 0.48233,-0.523 0.48233,-1.38306 v -2.47556 q 0,-0.86587 -0.48233,-1.38306 -0.47651,-0.52301 -1.27265,-0.52301 -0.79032,0 -1.27264,0.52301 -0.48233,0.51719 -0.48233,1.38306 v 2.47556 q 0,0.86006 0.48233,1.38306 0.48232,0.52301 1.27264,0.52301 z m 4.77098,-3.59131 h 3.90512 v 1.12737 h -3.90512 z m 8.36229,4.75936 q -0.61598,0 -1.16223,-0.11623 -0.54044,-0.11622 -1.01696,-0.34867 -0.4707,-0.23244 -0.8833,-0.58112 v 0 l 0.73802,-0.90654 v 0 q 0.48233,0.41841 1.06345,0.62761 0.58112,0.2092 1.26102,0.2092 0.91817,0 1.42374,-0.34286 0.50558,-0.34286 0.50558,-0.95884 v -0.006 q 0,-0.48232 -0.2557,-0.73802 -0.25569,-0.25569 -0.67409,-0.37772 -0.4126,-0.12785 -0.90655,-0.2092 -0.47651,-0.0814 -0.96465,-0.19177 -0.48233,-0.11042 -0.88911,-0.34286 -0.40679,-0.23826 -0.65667,-0.67991 -0.24407,-0.44165 -0.24407,-1.17967 v -0.006 q 0,-1.17967 0.78451,-1.82471 0.78451,-0.65086 2.21406,-0.65086 0.67991,0 1.33076,0.22083 0.65086,0.21501 1.26684,0.66247 v 0 l -0.6741,0.94141 v 0 q -0.48232,-0.36029 -0.96465,-0.53462 -0.47652,-0.17434 -0.95885,-0.17434 -0.86586,0 -1.34819,0.34867 -0.47652,0.34286 -0.47652,0.97628 v 0.006 q 0,0.47652 0.27894,0.7264 0.27894,0.24988 0.7264,0.37191 0.45327,0.11623 0.97046,0.22083 0.4649,0.093 0.92979,0.22664 0.4649,0.12784 0.84262,0.37772 0.38354,0.24407 0.61018,0.6741 0.23245,0.43003 0.23245,1.12156 v 0.0116 q 0,1.16805 -0.81357,1.80728 -0.81357,0.63923 -2.28961,0.63923 z m 8.87368,-0.0872 -2.19663,-3.71335 -0.18014,-0.29055 -2.74288,-4.44556 h 1.33076 l 2.03972,3.44022 0.19177,0.3138 2.88816,4.69544 z m -5.18939,0 2.94046,-4.82909 2.12108,-3.62037 h 1.33076 l -2.79518,4.5734 -2.26636,3.87606 z m 9.54778,-8.44946 v 8.44946 h -1.18549 v -7.15938 l -1.20291,0.73802 v -1.22616 l 1.20291,-0.80194 z m 1.78984,8.44946 v -1.02858 l 2.94627,-3.92836 q 0.25569,-0.33705 0.39516,-0.69734 0.14528,-0.36029 0.14528,-0.67991 v -0.0116 q 0,-0.50557 -0.29637,-0.78451 -0.29637,-0.27894 -0.84263,-0.27894 -0.51138,0 -0.83681,0.308 -0.31961,0.30218 -0.38934,0.86005 v 0.006 h -1.22616 v -0.006 q 0.1569,-1.0925 0.79613,-1.69105 0.63923,-0.60437 1.64456,-0.60437 1.13899,0 1.76079,0.57531 0.6218,0.57531 0.6218,1.62713 v 0.006 q 0,0.44746 -0.18596,0.94141 -0.18596,0.48814 -0.5172,0.9356 l -2.4465,3.324 h 3.19615 v 1.12737 z m 8.1066,0.0872 q -1.12156,0 -1.73755,-0.66829 -0.61598,-0.66828 -0.61598,-1.88282 v -0.006 q 0,-0.54625 0.15109,-1.15643 0.15109,-0.61598 0.43584,-1.18548 l 1.83633,-3.6378 h 1.27846 l -2.15595,4.21311 0.006,-0.2092 q 0.30219,-0.57531 1.07507,-0.57531 0.99371,0 1.53997,0.66247 0.54625,0.65667 0.54625,1.85958 v 0.006 q 0,1.22616 -0.61599,1.90607 -0.61598,0.6741 -1.74335,0.6741 z m 0,-1.13899 q 0.56949,0 0.87167,-0.34868 0.30219,-0.34867 0.30219,-0.99371 v -0.006 q 0,-0.70896 -0.31962,-1.0925 -0.31961,-0.38935 -0.91235,-0.38935 -0.52882,0 -0.81938,0.38935 -0.29056,0.38935 -0.29056,1.09831 v 0.006 q 0,0.64505 0.30218,0.99372 0.30799,0.34286 0.86587,0.34286 z m 3.80051,1.05182 v -1.02858 l 2.94627,-3.92836 q 0.25569,-0.33705 0.39516,-0.69734 0.14528,-0.36029 0.14528,-0.67991 v -0.0116 q 0,-0.50557 -0.29637,-0.78451 -0.29637,-0.27894 -0.84262,-0.27894 -0.51139,0 -0.83681,0.308 -0.31962,0.30218 -0.38935,0.86005 v 0.006 h -1.22616 v -0.006 q 0.1569,-1.0925 0.79613,-1.69105 0.63923,-0.60437 1.64456,-0.60437 1.139,0 1.76079,0.57531 0.6218,0.57531 0.6218,1.62713 v 0.006 q 0,0.44746 -0.18596,0.94141 -0.18596,0.48814 -0.51719,0.9356 l -2.44651,3.324 h 3.19615 v 1.12737 z"
         id="text5-7"
         style="font-size:11.9013px;line-height:1.45;font-family:Bahnschrift;-inkscape-font-specification:Bahnschrift;word-spacing:0px;stroke-width:0.314889"
         aria-label="FCC ID:Z4T-WIO-SX1262" /><g
         id="g46"
         transform="translate(9.5250005)"><path
           style="fill:#000000;fill-opacity:0.964539;fill-rule:evenodd;stroke:none;stroke-width:0.104201;stroke-linecap:round;stroke-miterlimit:16.5;paint-order:markers fill stroke"
           d="m -886.39701,371.78351 c -0.0686,1.53987 -0.01,3.10204 -0.0296,4.65039 0.30304,0.29984 0.91267,0.0429 1.33049,0.12821 1.24286,0.0218 2.49551,-0.0494 3.73047,0.0652 0.1362,2.49634 0.0378,5.00178 0.0691,7.50153 0.29767,0.29946 0.9015,0.0429 1.3139,0.12821 0.38685,0.0288 0.85263,-0.0514 1.19167,0.0935 0.0829,0.89735 0.11173,1.83453 -0.017,2.71758 -0.88145,0.0766 -1.78867,0.10785 -2.66639,-0.007 -0.22855,-0.36455 -0.0715,-0.87094 -0.12627,-1.29518 -0.1064,-0.35884 0.23291,-1.08991 -0.20843,-1.20406 -0.75344,-0.0557 -1.55947,0.10906 -2.27441,-0.0974 -0.1694,-1.39617 -0.0397,-2.82209 -0.0821,-4.22897 0.0793,-0.48036 0.017,-1.00899 -0.60919,-0.80359 -0.53709,0.0315 -1.10235,-0.0628 -1.62189,0.0468 -0.10058,0.80419 0.0596,1.6687 -0.10421,2.46005 -0.81188,0.13475 -1.66139,-0.0218 -2.46068,0.10494 -0.0378,0.71408 -0.0715,1.47916 0.017,2.1844 0.80606,0.0901 1.64248,-0.041 2.45147,0.0901 0.0986,0.90734 0.11415,1.85324 -0.007,2.75047 -0.81187,0.13475 -1.66138,-0.0218 -2.46068,0.10494 -0.0686,1.53987 -0.01,3.10206 -0.0296,4.65039 0.29127,0.29677 0.88376,0.0468 1.29044,0.12821 0.37507,-0.0405 1.15423,0.20455 0.96986,-0.4488 0.0499,-0.6754 -0.10009,-1.39513 0.0965,-2.03426 0.85085,-0.15801 1.74699,-0.0742 2.61124,-0.039 0.2592,0.0827 0.0909,0.53741 0.15753,0.75691 0.0351,0.57623 -0.0565,1.17752 0.0507,1.73604 2.49706,0.0926 5.01911,-0.0448 7.5225,0.0889 0.19679,0.11924 0.0664,0.52349 0.12142,0.73997 0.0351,0.57623 -0.0565,1.17752 0.0507,1.73603 0.80604,0.0904 1.64249,-0.041 2.45145,0.0902 0.15244,1.65959 -0.007,3.3583 0.10106,5.01334 0.7075,0.13305 1.51384,0.017 2.2582,0.0557 0.83092,-0.0315 1.69018,0.0628 2.50358,-0.0468 0.10639,-1.64336 -0.0696,-3.32072 0.10203,-4.96536 0.39475,-0.21618 0.9189,-0.0662 1.36828,-0.11803 0.33974,-0.10518 1.14781,0.25976 1.12391,-0.2885 0,-3.17944 0,-6.35896 0,-9.5384 -0.28804,-0.29876 -0.88158,-0.0436 -1.28423,-0.12821 -0.39819,-0.0538 -0.8736,0.096 -1.21533,-0.12506 -0.15923,-0.78175 0.0257,-1.62658 -0.11197,-2.41061 -0.71408,-0.0378 -1.47913,-0.0715 -2.18437,0.017 -0.10203,0.80322 0.0623,1.67198 -0.10615,2.45973 -0.88145,0.0766 -1.78867,0.10785 -2.6664,-0.007 -0.19049,-0.35377 -0.0642,-0.86626 -0.11657,-1.2778 0.01,-2.15706 -0.0693,-4.34213 0.0545,-6.48298 0.0911,-0.26291 0.50459,-0.11633 0.71576,-0.16892 0.58236,-0.0366 1.19135,0.0591 1.7559,-0.0506 0.0378,-0.71409 0.0715,-1.47921 -0.017,-2.18437 -1.53987,-0.0686 -3.10204,-0.01 -4.65039,-0.0296 -0.29984,0.30312 -0.0429,0.91274 -0.12821,1.33057 -0.0327,2.09865 0.071,4.21959 -0.0768,6.30573 -0.88146,0.0766 -1.78868,0.10785 -2.6664,-0.007 -0.18492,-0.41123 -0.0642,-0.95404 -0.11463,-1.40969 -0.0218,-2.88532 -0.007,-5.77076 -0.0121,-8.65615 -0.29132,-0.29677 -0.88381,-0.0468 -1.29048,-0.12821 -0.37508,0.0405 -1.15423,-0.20455 -0.96982,0.44887 -0.0301,0.67918 0.0649,1.40219 -0.0768,2.05752 -0.88146,0.0766 -1.78867,0.10785 -2.6664,-0.007 -0.22854,-0.36453 -0.0715,-0.87091 -0.12627,-1.29516 -0.10639,-0.35883 0.23291,-1.08991 -0.20842,-1.20406 -0.66913,0.032 -1.37148,-0.0635 -2.02265,0.0468 z m 16.52003,15.03838 c 0.43995,0.0194 0.91594,-0.0315 1.33493,0.071 0.11124,1.75777 0.11318,3.54087 0,5.29838 -1.67421,0.11027 -3.3608,0.0754 -5.0377,0.0276 -0.45277,0.0507 -0.26533,-0.55139 -0.32139,-0.81263 0.041,-0.63966 -0.10615,-1.34213 0.10422,-1.94533 0.78354,-0.17838 1.63843,0.0242 2.42748,-0.12046 0.12263,-0.79757 -0.0982,-1.66773 0.12578,-2.43644 0.43763,-0.12942 0.91575,-0.0572 1.36775,-0.0819 z"
           id="path25" /><path
           style="fill:#000000;fill-opacity:0.964539;fill-rule:evenodd;stroke:none;stroke-width:0.104201;stroke-linecap:round;stroke-miterlimit:16.5;paint-order:markers fill stroke"
           d="m -868.44234,399.99798 c -0.0902,0.80604 0.041,1.64249 -0.0902,2.45145 -1.65957,0.15245 -3.35828,-0.007 -5.01332,0.10107 -0.13329,0.654 -0.017,1.4072 -0.0557,2.09787 0.29767,0.29946 0.90153,0.0429 1.3139,0.12821 0.38552,0.0315 0.85952,-0.055 1.19167,0.0969 0.13524,1.64908 -0.01,3.334 0.0935,4.97728 0.70749,0.13305 1.51384,0.017 2.25819,0.0557 0.83093,-0.0315 1.69018,0.0628 2.50358,-0.0468 0.1064,-1.64338 -0.0696,-3.32072 0.10204,-4.96538 0.39472,-0.21619 0.91887,-0.0662 1.36825,-0.11803 0.33974,-0.10518 1.14783,0.25976 1.12391,-0.2885 -0.032,-0.6438 0.0635,-1.31615 -0.0468,-1.9425 -0.79763,-0.12288 -1.66842,0.0986 -2.43689,-0.12627 -0.19582,-0.78265 0.0218,-1.64689 -0.12796,-2.43875 -0.70856,-0.0378 -1.48517,-0.0715 -2.18437,0.017 z"
           id="path26" /><path
           style="fill:#000000;fill-opacity:0.964539;fill-rule:evenodd;stroke:none;stroke-width:0.104201;stroke-linecap:round;stroke-miterlimit:16.5;paint-order:markers fill stroke"
           d="m -878.70215,399.99798 c -0.10058,0.8042 0.0596,1.66871 -0.10421,2.46006 -0.81188,0.13475 -1.66139,-0.0218 -2.46068,0.10494 -0.0378,0.71408 -0.0715,1.47913 0.017,2.18437 1.53987,0.0686 3.10206,0.01 4.65039,0.0296 0.29875,-0.28797 0.0436,-0.88151 0.1282,-1.28416 0.0538,-0.39819 -0.096,-0.8736 0.12506,-1.21533 0.78175,-0.15923 1.62656,0.0257 2.41061,-0.11197 0.0378,-0.71408 0.0715,-1.4792 -0.017,-2.18437 -1.53987,-0.0686 -3.10206,-0.01 -4.65039,-0.0296 l -0.0725,0.0339 z"
           id="path27" /><path
           style="fill:#000000;fill-opacity:0.964539;fill-rule:evenodd;stroke:none;stroke-width:0.104201;stroke-linecap:round;stroke-miterlimit:16.5;paint-order:markers fill stroke"
           d="m -891.52692,394.86809 c -0.0378,0.71409 -0.0715,1.47914 0.017,2.18437 0.80417,0.10058 1.66869,-0.0596 2.46006,0.10422 0.13475,0.81187 -0.0218,1.66139 0.10494,2.46068 1.66286,0.0974 3.35932,-0.0538 5.02238,0.0962 0.14032,0.81367 -0.0218,1.66703 0.1076,2.46885 0.71409,0.0378 1.47921,0.0715 2.18438,-0.017 0.0686,-1.53987 0.01,-3.10206 0.0296,-4.65038 -0.28804,-0.29876 -0.88157,-0.0436 -1.2842,-0.12821 -0.39822,-0.0538 -0.87363,0.096 -1.21533,-0.12506 -0.15923,-0.78172 0.0257,-1.62656 -0.11197,-2.41061 -2.39491,-0.0686 -4.81199,-0.01 -7.21535,-0.0296 l -0.0725,0.0339 z"
           id="path28" /><path
           style="fill:#000000;fill-opacity:0.964539;fill-rule:evenodd;stroke:none;stroke-width:0.104201;stroke-linecap:round;stroke-miterlimit:16.5;paint-order:markers fill stroke"
           d="m -881.26709,394.86809 c -0.0378,0.71409 -0.0715,1.47914 0.017,2.18437 1.53987,0.0686 3.10206,0.01 4.65039,0.0296 0.29677,-0.29124 0.0468,-0.88376 0.12821,-1.29043 -0.0405,-0.37505 0.20455,-1.15423 -0.44888,-0.96987 -1.43759,0.0242 -2.89583,-0.0461 -4.32073,0.0339 z"
           id="path29" /><path
           style="fill:#000000;fill-opacity:0.964539;fill-rule:evenodd;stroke:none;stroke-width:0.104201;stroke-linecap:round;stroke-miterlimit:16.5;paint-order:markers fill stroke"
           d="m -894.09187,397.43304 c -0.0378,0.71408 -0.0715,1.47913 0.017,2.18437 0.71408,0.0378 1.47923,0.0715 2.18439,-0.017 0.0378,-0.71409 0.0715,-1.47921 -0.017,-2.18438 -0.70856,-0.0378 -1.48517,-0.0715 -2.18437,0.017 z"
           id="path30" /><path
           style="fill:#000000;fill-opacity:0.964539;fill-rule:evenodd;stroke:none;stroke-width:0.104201;stroke-linecap:round;stroke-miterlimit:16.5;paint-order:markers fill stroke"
           d="m -899.46222,368.97808 c -0.0684,2.82242 -0.01,5.66695 -0.0296,8.49781 0,12.55758 0,25.1152 0,37.67278 0.30307,0.29982 0.91269,0.0429 1.33052,0.1282 14.9622,0 29.92447,0 44.88667,0 0.29992,-0.30306 0.0429,-0.91269 0.12821,-1.33052 -0.10906,-0.35158 0.26482,-1.18416 -0.28855,-1.17024 -1.64774,-0.0359 -3.30591,0.0746 -4.94788,-0.0681 -0.22345,-0.24187 -0.0766,-0.68992 -0.13281,-0.99943 0.041,-0.56603 -0.0931,-1.19471 0.10518,-1.72411 1.48917,-0.1619 3.00281,-0.0371 4.50061,-0.078 0.54581,0.12627 0.94781,-0.0817 0.76352,-0.68927 -0.0308,-0.5105 0.0628,-1.04887 -0.0468,-1.54173 -0.87344,-0.11609 -1.80668,0.087 -2.6678,-0.11779 -0.14857,-0.87079 -0.15826,-1.83259 0.007,-2.6994 0.87164,-0.19704 1.81022,0.0194 2.67953,-0.12845 0.0378,-0.71408 0.0715,-1.47921 -0.017,-2.18437 -0.87503,-0.12215 -1.81964,0.0984 -2.67737,-0.12627 -0.19583,-0.78265 0.0218,-1.64689 -0.12797,-2.43877 -1.53987,-0.0686 -3.10206,-0.01 -4.65041,-0.0296 -0.29982,0.30311 -0.0429,0.91274 -0.1282,1.33057 0.0315,1.15161 -0.0628,2.33128 0.0468,3.46545 0.80276,0.10276 1.67389,-0.0642 2.45979,0.10712 0.0846,0.90222 0.0911,1.82381 -0.007,2.72526 -1.65933,0.15148 -3.35758,-0.007 -5.01235,0.10082 -0.16117,0.77545 0.0494,1.68114 -0.13063,2.47249 -0.81188,0.13475 -1.66139,-0.0218 -2.46068,0.10494 -0.0902,0.80589 0.0405,1.64207 -0.0899,2.45099 -1.67733,0.11488 -3.36802,0.0763 -5.04846,0.0296 -0.42989,0.0533 -0.27946,-0.49466 -0.32139,-0.74203 -0.0366,-0.58231 0.0589,-1.19136 -0.0506,-1.75591 -0.79765,-0.12287 -1.66844,0.0986 -2.43691,-0.12627 -0.19582,-0.78262 0.0218,-1.64689 -0.12796,-2.43874 -0.71409,-0.0378 -1.47916,-0.0715 -2.1844,0.017 -0.10058,0.80417 0.0596,1.66871 -0.10421,2.46005 -0.81188,0.13475 -1.66139,-0.0218 -2.46068,0.10494 -0.0926,0.80369 0.0448,1.64736 -0.0931,2.44896 -2.38541,0.12554 -4.7801,0.0603 -7.16865,0.0482 -0.24796,-0.0589 -0.7859,0.12069 -0.72768,-0.31357 -0.0565,-0.79156 -0.12385,-1.6846 0.0659,-2.45678 1.52923,-0.16335 3.08335,-0.0366 4.62162,-0.078 0.64026,0.1493 0.33586,-0.65136 0.40282,-1.00988 -0.0771,-0.39402 0.16117,-0.97049 -0.12821,-1.25042 -0.78012,-0.0499 -1.59936,0.0989 -2.34815,-0.0885 -0.21279,-0.77976 0.0194,-1.65375 -0.13524,-2.44711 -3.22607,-0.0841 -6.47478,0.0257 -9.70873,-0.0662 -0.21206,0 -0.5353,0.01 -0.48079,-0.30106 -0.0715,-0.71486 0.0456,-1.48696 -0.0703,-2.19785 -0.79707,-0.12239 -1.66747,0.0977 -2.43531,-0.12554 -0.16481,-1.31326 -0.0475,-2.65556 -0.0785,-3.97954 0.0385,-0.42008 -0.0572,-0.89502 0.10373,-1.28498 0.78355,-0.17837 1.63844,0.0242 2.42748,-0.12045 0.0378,-0.71408 0.0715,-1.47921 -0.017,-2.18437 -0.79586,-0.12263 -1.66832,0.0979 -2.43344,-0.1253 -0.15923,-1.54251 -0.0507,-3.14156 -0.0843,-4.70528 0.039,-1.03181 -0.0713,-2.11353 0.0965,-3.11667 0.78265,-0.19583 1.6469,0.0218 2.43878,-0.12797 0.0378,-0.71408 0.0715,-1.4792 -0.017,-2.18437 -0.79583,-0.12263 -1.66829,0.0979 -2.43344,-0.12554 -0.15923,-1.54248 -0.0507,-3.14154 -0.0843,-4.70528 0.0385,-1.03116 -0.0708,-2.11331 0.096,-3.11524 1.3876,-0.16287 2.80307,-0.0526 4.20101,-0.0732 0.34686,0.0397 0.79394,-0.0499 1.08608,0.0962 0.12021,0.80315 -0.0257,1.64047 0.0977,2.42971 0.71408,0.0378 1.4792,0.0715 2.18437,-0.017 0.0686,-1.53987 0.01,-3.10206 0.0296,-4.65041 -0.28805,-0.29873 -0.88158,-0.0436 -1.28421,-0.12821 -0.39584,-0.0499 -0.86248,0.088 -1.20687,-0.11633 -0.15559,-1.62104 -0.0339,-3.26282 -0.0739,-4.89129 0.10422,-0.63098 -0.73211,-0.26868 -1.09012,-0.36276 -0.3489,0.10373 -1.06548,-0.22879 -1.17018,0.20843 -0.0301,1.69909 0.0647,3.40568 -0.0669,5.10046 -0.88383,0.0829 -1.79541,0.10931 -2.67628,-0.007 -0.19534,-0.30471 -0.0688,-0.76037 -0.11997,-1.11523 -0.041,-1.38367 0.057,-2.79402 -0.0533,-4.16012 -0.789,-0.039 -1.6451,-0.0698 -2.42486,0.017 z m 7.78334,38.36344 c 0.86926,0.0194 1.75974,-0.0366 2.6172,0.071 0.11148,1.75688 0.11269,3.53894 0,5.29555 -2.40984,0.12166 -4.82864,0.0628 -7.24143,0.0436 -0.2334,-0.0444 -0.71292,0.0945 -0.64751,-0.31056 -0.0553,-0.79287 -0.12651,-1.6878 0.0688,-2.4608 0.78352,-0.17838 1.63843,0.0242 2.42748,-0.12045 0.12263,-0.797 -0.0982,-1.66806 0.12578,-2.43551 0.86849,-0.14202 1.77161,-0.0526 2.65043,-0.0829 z"
           id="path31" /><path
           style="fill:#000000;fill-opacity:0.964539;fill-rule:evenodd;stroke:none;stroke-width:0.104201;stroke-linecap:round;stroke-miterlimit:16.5;paint-order:markers fill stroke"
           d="m -863.31243,374.34846 c -0.0378,0.71408 -0.0715,1.47913 0.017,2.18437 0.80606,0.0904 1.64248,-0.041 2.45147,0.0902 0.10422,0.90705 0.10228,1.83503 0,2.74232 -1.67595,0.1127 -3.36477,0.0759 -5.04366,0.0288 -0.42989,0.0533 -0.27946,-0.49465 -0.32139,-0.74205 -0.0366,-0.58231 0.0589,-1.19135 -0.0507,-1.7559 -1.53987,-0.0686 -3.10204,-0.01 -4.65039,-0.0296 -0.29676,0.29131 -0.0468,0.88383 -0.1282,1.29048 0.0405,0.37508 -0.20455,1.15423 0.44882,0.96982 0.68015,0.0288 1.39891,-0.0623 2.05786,0.0751 0.13475,0.81188 -0.0218,1.66139 0.10494,2.46069 0.80419,0.10057 1.6687,-0.0596 2.46005,0.10421 0.13475,0.81187 -0.0218,1.66139 0.10494,2.46068 0.80417,0.10058 1.66868,-0.0596 2.46003,0.10422 0.13475,0.81187 -0.0218,1.66138 0.10494,2.4607 0.71408,0.0378 1.47921,0.0715 2.18437,-0.017 0.12264,-0.79758 -0.0982,-1.66774 0.12579,-2.43645 0.85084,-0.15802 1.74698,-0.0742 2.61123,-0.039 0.2592,0.0826 0.0906,0.53743 0.15753,0.75693 0.0354,0.57621 -0.0565,1.1775 0.0507,1.73601 0.71408,0.0378 1.4792,0.0715 2.18439,-0.017 0.12264,-0.79765 -0.0982,-1.66793 0.12579,-2.4366 0.87164,-0.19703 1.81021,0.0194 2.67955,-0.12845 0.0378,-0.71408 0.0715,-1.4792 -0.017,-2.18437 -1.71851,-0.10348 -3.46846,0.0642 -5.18973,-0.0974 -0.17838,-0.25824 -0.0957,-0.63971 -0.1413,-0.95538 0.0121,-0.59314 -0.0623,-1.23156 0.12361,-1.77219 1.62103,-0.1556 3.26281,-0.0339 4.89129,-0.0739 0.63097,0.10421 0.26867,-0.73209 0.36276,-1.09003 -0.10373,-0.3489 0.22878,-1.06548 -0.20843,-1.17027 -1.67448,-0.0366 -3.35939,0.0751 -5.02803,-0.0681 -0.22733,-0.238 -0.0771,-0.66489 -0.13305,-0.97198 -0.0315,-0.49536 0.0616,-1.0179 -0.0475,-1.49557 -1.53987,-0.0686 -3.10206,-0.01 -4.65039,-0.0296 l -0.0725,0.0339 z"
           id="path32" /><path
           style="fill:#000000;fill-opacity:0.964539;fill-rule:evenodd;stroke:none;stroke-width:0.104201;stroke-linecap:round;stroke-miterlimit:16.5;paint-order:markers fill stroke"
           d="m -860.74748,387.17323 c -0.10058,0.80417 0.0596,1.66869 -0.10422,2.46003 -0.81187,0.13475 -1.66138,-0.0218 -2.46068,0.10494 -0.0686,1.53987 -0.01,3.10206 -0.0296,4.65039 0.29767,0.29946 0.90153,0.0429 1.3139,0.12821 0.38564,0.0373 0.87569,-0.0654 1.20001,0.10591 0.12021,0.80315 -0.0257,1.64047 0.0977,2.42971 1.53987,0.0686 3.10206,0.01 4.65038,0.0296 0.29876,-0.28797 0.0436,-0.8815 0.12821,-1.28413 0.0545,-0.39783 -0.0962,-0.87413 0.1253,-1.21489 0.87099,-0.16068 1.78911,0.025 2.65089,-0.11245 0.0378,-0.71409 0.0715,-1.47921 -0.017,-2.18437 -1.71851,-0.10373 -3.46845,0.0642 -5.18973,-0.0974 -0.20818,-0.1619 -0.0596,-0.55699 -0.12287,-0.78791 -0.0424,-1.40366 0.0378,-2.82727 -0.0456,-4.21819 -0.65405,-0.13329 -1.40725,-0.0145 -2.09794,-0.0557 l -0.0725,0.0339 z"
           id="path33" /><path
           style="fill:#000000;fill-opacity:0.964539;fill-rule:evenodd;stroke:none;stroke-width:0.104201;stroke-linecap:round;stroke-miterlimit:16.5;paint-order:markers fill stroke"
           d="m -855.61757,397.43304 c -0.0378,0.71408 -0.0715,1.47913 0.017,2.18437 0.79457,0.039 1.63909,0.07 2.42486,-0.017 0.0378,-0.71409 0.0715,-1.47921 -0.017,-2.18438 -0.78898,-0.039 -1.64511,-0.0698 -2.42484,0.017 z"
           id="path34" /><path
           style="fill:#000000;fill-opacity:0.964539;fill-rule:evenodd;stroke:none;stroke-width:0.104201;stroke-linecap:round;stroke-miterlimit:16.5;paint-order:markers fill stroke"
           d="m -855.61757,387.17323 c -0.0378,0.71409 -0.0715,1.47914 0.017,2.18437 0.79457,0.039 1.63909,0.0701 2.42486,-0.017 0.0378,-0.71408 0.0715,-1.47923 -0.017,-2.1844 -0.78898,-0.039 -1.64511,-0.0698 -2.42484,0.017 z"
           id="path35" /><path
           style="fill:#000000;fill-opacity:0.964539;fill-rule:evenodd;stroke:none;stroke-width:0.104201;stroke-linecap:round;stroke-miterlimit:16.5;paint-order:markers fill stroke"
           d="m -858.18251,368.97808 c -0.0688,1.62004 -0.01,3.2623 -0.0296,4.89085 0.30304,0.29985 0.91267,0.0429 1.3305,0.12821 1.23188,-0.0308 2.49141,0.0616 3.70591,-0.0468 0.0378,-0.71408 0.0715,-1.4792 -0.017,-2.18437 -0.87503,-0.1219 -1.81912,0.0982 -2.67704,-0.12578 -0.19679,-0.87164 0.0194,-1.81022 -0.12845,-2.67956 -0.70855,-0.0378 -1.48517,-0.0715 -2.18437,0.017 z"
           id="path36" /><path
           style="fill:#000000;fill-opacity:0.964539;fill-rule:evenodd;stroke:none;stroke-width:0.104201;stroke-linecap:round;stroke-miterlimit:16.5;paint-order:markers fill stroke"
           d="m -863.31243,368.97808 c -0.039,0.79457 -0.07,1.63909 0.017,2.42486 0.71408,0.0378 1.47923,0.0715 2.18439,-0.017 0.039,-0.79454 0.07,-1.63906 -0.017,-2.42483 -0.70856,-0.0378 -1.48517,-0.0715 -2.18437,0.017 z"
           id="path38" /><path
           style="fill:#000000;fill-opacity:0.964539;fill-rule:evenodd;stroke:none;stroke-width:0.104201;stroke-linecap:round;stroke-miterlimit:16.5;paint-order:markers fill stroke"
           d="m -865.87737,371.78351 c -0.0378,0.71409 -0.0715,1.47914 0.017,2.18438 0.71409,0.0378 1.47921,0.0715 2.18437,-0.017 0.0378,-0.71408 0.0715,-1.47923 -0.017,-2.18439 -0.70856,-0.0378 -1.48517,-0.0715 -2.18437,0.017 z"
           id="path39" /><path
           style="fill:#000000;fill-opacity:0.964539;fill-rule:evenodd;stroke:none;stroke-width:0.104201;stroke-linecap:round;stroke-miterlimit:16.5;paint-order:markers fill stroke"
           d="m -868.44234,368.97808 c -0.039,0.79457 -0.07,1.63909 0.017,2.42486 0.71409,0.0378 1.47921,0.0715 2.18437,-0.017 0.039,-0.79454 0.0701,-1.63906 -0.017,-2.42483 -0.70858,-0.0378 -1.48517,-0.0715 -2.1844,0.017 z"
           id="path40" /><path
           style="fill:#000000;fill-opacity:0.964539;fill-rule:evenodd;stroke:none;stroke-width:0.104201;stroke-linecap:round;stroke-miterlimit:16.5;paint-order:markers fill stroke"
           d="m -871.00729,371.78351 c -0.0378,0.71409 -0.0715,1.47914 0.017,2.18438 0.71408,0.0378 1.47923,0.0715 2.18439,-0.017 0.0378,-0.71408 0.0715,-1.47923 -0.017,-2.18439 -0.70856,-0.0378 -1.48517,-0.0715 -2.18437,0.017 z"
           id="path41" /><path
           style="fill:#000000;fill-opacity:0.964539;fill-rule:evenodd;stroke:none;stroke-width:0.104201;stroke-linecap:round;stroke-miterlimit:16.5;paint-order:markers fill stroke"
           d="m -873.57223,368.97808 c -0.039,0.79457 -0.07,1.63909 0.017,2.42486 0.71409,0.0378 1.47921,0.0715 2.18437,-0.017 0.039,-0.79454 0.0701,-1.63906 -0.017,-2.42483 -0.70856,-0.0378 -1.48517,-0.0715 -2.18437,0.017 z"
           id="path42" /><path
           style="fill:#000000;fill-opacity:0.964539;fill-rule:evenodd;stroke:none;stroke-width:0.104201;stroke-linecap:round;stroke-miterlimit:16.5;paint-order:markers fill stroke"
           d="m -878.70215,368.97808 c -0.039,0.79457 -0.07,1.63909 0.017,2.42486 0.71408,0.0378 1.47923,0.0715 2.18439,-0.017 0.039,-0.79454 0.07,-1.63906 -0.017,-2.42483 -0.70856,-0.0378 -1.48517,-0.0715 -2.18437,0.017 z"
           id="path43" /><path
           style="fill:#000000;fill-opacity:0.964539;fill-rule:evenodd;stroke:none;stroke-width:0.104201;stroke-linecap:round;stroke-miterlimit:16.5;paint-order:markers fill stroke"
           d="m -883.83206,368.97808 c -0.039,0.79457 -0.07,1.63909 0.017,2.42486 0.71409,0.0378 1.47921,0.0715 2.18437,-0.017 0.039,-0.79454 0.0701,-1.63906 -0.017,-2.42483 -0.70858,-0.0378 -1.48517,-0.0715 -2.1844,0.017 z"
           id="path44" /><path
           style="fill:#000000;fill-opacity:0.964539;fill-rule:evenodd;stroke:none;stroke-width:0.104201;stroke-linecap:round;stroke-miterlimit:16.5;paint-order:markers fill stroke"
           d="m -888.96195,368.97808 c -0.039,0.79457 -0.07,1.63909 0.017,2.42486 0.71409,0.0378 1.47921,0.0715 2.18437,-0.017 0.039,-0.79454 0.0701,-1.63906 -0.017,-2.42483 -0.70856,-0.0378 -1.48517,-0.0715 -2.18437,0.017 z"
           id="path45" /></g><g
         style="clip-rule:evenodd;fill-rule:evenodd"
         id="g45"
         transform="matrix(0.07615832,0,0,0.07615832,-900.45588,420.12232)"><path
           d="M 110,199.49874 A 100,100 0 0 1 100,200 100,100 0 0 1 100,0 100,100 0 0 1 110,0.501256 v 30 A 70,70 0 0 0 100,30 a 70,70 0 0 0 0,140 70,70 0 0 0 10,-0.50126 z"
           fill="#000000"
           id="path1-5" /><path
           d="M 280,199.49874 A 100,100 0 0 1 270,200 100,100 0 0 1 270,0 100,100 0 0 1 280,0.501256 v 30 A 70,70 0 0 0 270,30 70,70 0 0 0 201.62028,85 H 260 v 30 H 201.62028 A 70,70 0 0 0 270,170 a 70,70 0 0 0 10,-0.50126 z"
           fill="#000000"
           id="path2-35" /></g><rect
         style="fill:#e6e6e6;fill-opacity:1;fill-rule:evenodd;stroke:none;stroke-width:0.635;stroke-linecap:round;stroke-miterlimit:16.5;paint-order:markers fill stroke"
         id="rect1"
         width="35.012974"
         height="34.74902"
         x="-814.16278"
         y="421.13644"
         ry="6.7723784"
         rx="5.7605977" /><g
         id="g38"
         transform="translate(-256.28828,-131.90881)"><circle
           style="fill:#ffcc00;fill-opacity:1;fill-rule:evenodd;stroke:none;stroke-width:2.61056;stroke-linecap:round;stroke-miterlimit:16.5;paint-order:markers fill stroke"
           id="circle38"
           cx="-540.41199"
           cy="570.50775"
           r="12.236979" /><circle
           style="fill:#e6e6e6;fill-opacity:1;fill-rule:evenodd;stroke:none;stroke-width:2.13078;stroke-linecap:round;stroke-miterlimit:16.5;paint-order:markers fill stroke"
           id="circle37"
           cx="-540.41199"
           cy="570.50775"
           r="9.9880209" /><circle
           style="fill:#ffcc00;fill-opacity:1;fill-rule:evenodd;stroke:none;stroke-width:0.635;stroke-linecap:round;stroke-miterlimit:16.5;paint-order:markers fill stroke"
           id="path37"
           cx="-540.41199"
           cy="570.50775"
           r="2.9765625" /><rect
           style="fill:#e6e6e6;fill-opacity:1;fill-rule:evenodd;stroke:none;stroke-width:0.635;stroke-linecap:round;stroke-miterlimit:16.5;paint-order:markers fill stroke"
           id="rect39"
           width="13.563929"
           height="4.770761"
           x="-546.78979"
           y="550.42615"
           ry="0"
           rx="0" /><rect
           style="fill:#e6e6e6;fill-opacity:1;fill-rule:evenodd;stroke:none;stroke-width:0.635;stroke-linecap:round;stroke-miterlimit:16.5;paint-order:markers fill stroke"
           id="rect39-6"
           width="13.563929"
           height="4.770761"
           x="-546.78979"
           y="586.27777"
           ry="0"
           rx="0" /><rect
           style="fill:#e6e6e6;fill-opacity:1;fill-rule:evenodd;stroke:none;stroke-width:0.635;stroke-linecap:round;stroke-miterlimit:16.5;paint-order:markers fill stroke"
           id="rect40"
           width="13.563929"
           height="4.770761"
           x="563.95538"
           y="519.69666"
           ry="0"
           rx="0"
           transform="rotate(90)" /><rect
           style="fill:#e6e6e6;fill-opacity:1;fill-rule:evenodd;stroke:none;stroke-width:0.635;stroke-linecap:round;stroke-miterlimit:16.5;paint-order:markers fill stroke"
           id="rect41"
           width="13.563929"
           height="4.770761"
           x="563.95538"
           y="555.54828"
           ry="0"
           rx="0"
           transform="rotate(90)" /></g></g></g></svg>
