<?xml version='1.0' encoding='UTF-8' standalone='no'?>
<svg xmlns="http://www.w3.org/2000/svg" version="1.1" gorn="0" height="57pt" width="40pt" viewBox="0 0 40 57" id="svg2" >
    <desc >
        <referenceFile >ble_micro.svg</referenceFile>
    </desc>
    <metadata id="metadata641" >
        <rdf:RDF xmlns:rdf="http://www.w3.org/1999/02/22-rdf-syntax-ns#">
            <cc:Work rdf:about="" xmlns:rdf="http://www.w3.org/1999/02/22-rdf-syntax-ns#" xmlns:cc="http://creativecommons.org/ns#">
                <dc:format xmlns:dc="http://purl.org/dc/elements/1.1/">image/svg+xml</dc:format>
                <dc:type xmlns:rdf="http://www.w3.org/1999/02/22-rdf-syntax-ns#" rdf:resource="http://purl.org/dc/dcmitype/StillImage" xmlns:dc="http://purl.org/dc/elements/1.1/"/>
            </cc:Work>
        </rdf:RDF>
    </metadata>
    <defs id="defs639" />
    <path stroke="none" gorn="0.3" style="fill-rule:evenodd;" fill="#f8ed8b" fill-opacity="1" id="path5-7-1" d="m 1.816128,14.610632 36.36,0 0,-12.798416 -36.36,0 z m 0,0" />
    <g transform="matrix(-1,0,0,1,40.07721,0)" >
        <g >
            <g gorn="0.4.0.0" id="g4516" >
                <path stroke="none" gorn="0.4.0.0.0" style="fill-rule:evenodd;" fill="#747400" fill-opacity="1" id="path5-7" d="m 2.8946787,16.015527 2.160156,0 0,-13.3203135 -2.160156,0 z m 0,0" />
                <path stroke="#747400" gorn="0.4.0.0.1" style="stroke-linecap:round;stroke-linejoin:miter;stroke-miterlimit:10;" stroke-width="0.86400002" fill="none" stroke-opacity="1" id="path2483" d="m 29.910675,13.205988 -3.24216,0" />
                <path stroke="#747400" gorn="0.4.0.0.2" style="stroke-linecap:round;stroke-linejoin:miter;stroke-miterlimit:10;" stroke-width="0.86400002" fill="none" stroke-opacity="1" id="path2485" d="M 26.668515,13.205988 25.949739,12.487284" />
                <path stroke="#747400" gorn="0.4.0.0.3" style="stroke-linecap:round;stroke-linejoin:miter;stroke-miterlimit:10;" stroke-width="0.86400002" fill="none" stroke-opacity="1" id="path2487" d="m 25.949739,12.487284 0,-8.6406483" />
                <path stroke="#747400" gorn="0.4.0.0.4" style="stroke-linecap:round;stroke-linejoin:miter;stroke-miterlimit:10;" stroke-width="0.86400002" fill="none" stroke-opacity="1" id="path2489" d="M 25.949739,3.8466357 25.231035,3.1278597" />
                <path stroke="#747400" gorn="0.4.0.0.5" style="stroke-linecap:round;stroke-linejoin:miter;stroke-miterlimit:10;" stroke-width="0.86400002" fill="none" stroke-opacity="1" id="path2491" d="m 25.231035,3.1278597 -4.679712,0" />
                <path stroke="#747400" gorn="0.4.0.0.6" style="stroke-linecap:round;stroke-linejoin:miter;stroke-miterlimit:10;" stroke-width="0.86400002" fill="none" stroke-opacity="1" id="path2493" d="m 20.551323,3.1278597 -0.722664,0.718776" />
                <path stroke="#747400" gorn="0.4.0.0.7" style="stroke-linecap:round;stroke-linejoin:miter;stroke-miterlimit:10;" stroke-width="0.86400002" fill="none" stroke-opacity="1" id="path2495" d="m 19.828659,3.8466357 0,8.6406483" />
                <path stroke="#747400" gorn="0.4.0.0.8" style="stroke-linecap:round;stroke-linejoin:miter;stroke-miterlimit:10;" stroke-width="0.86400002" fill="none" stroke-opacity="1" id="path2497" d="m 19.828659,12.487284 -0.718776,0.718704" />
                <path stroke="#747400" gorn="0.4.0.0.9" style="stroke-linecap:round;stroke-linejoin:miter;stroke-miterlimit:10;" stroke-width="0.86400002" fill="none" stroke-opacity="1" id="path2499" d="m 19.109883,13.205988 -3.238272,0" />
                <path stroke="#747400" gorn="0.4.0.0.10" style="stroke-linecap:round;stroke-linejoin:miter;stroke-miterlimit:10;" stroke-width="0.86400002" fill="none" stroke-opacity="1" id="path2501" d="M 15.871611,13.205988 15.148947,12.487284" />
                <path stroke="#747400" gorn="0.4.0.0.11" style="stroke-linecap:round;stroke-linejoin:miter;stroke-miterlimit:10;" stroke-width="0.86400002" fill="none" stroke-opacity="1" id="path2503" d="m 15.148947,12.487284 0,-8.6406483" />
                <path stroke="#747400" gorn="0.4.0.0.12" style="stroke-linecap:round;stroke-linejoin:miter;stroke-miterlimit:10;" stroke-width="0.86400002" fill="none" stroke-opacity="1" id="path2505" d="M 15.148947,3.8466357 14.430243,3.1278597" />
                <path stroke="#747400" gorn="0.4.0.0.13" style="stroke-linecap:round;stroke-linejoin:miter;stroke-miterlimit:10;" stroke-width="0.86400002" fill="none" stroke-opacity="1" id="path2507" d="m 14.430243,3.1278597 -5.3984883,0" />
                <path stroke="#747400" gorn="0.4.0.0.14" style="stroke-linecap:round;stroke-linejoin:miter;stroke-miterlimit:10;" stroke-width="0.86400002" fill="none" stroke-opacity="1" id="path2509" d="m 3.6294507,3.1272135 5.402304,0 0,14.7578405" />
                <path stroke="#747400" gorn="0.4.0.0.15" style="stroke-linecap:round;stroke-linejoin:miter;stroke-miterlimit:10;" stroke-width="0.86400002" fill="none" stroke-opacity="1" id="path2521" d="m 29.910675,13.205988 0.718776,-0.718704" />
                <path stroke="#747400" gorn="0.4.0.0.16" style="stroke-linecap:round;stroke-linejoin:miter;stroke-miterlimit:10;" stroke-width="0.86400002" fill="none" stroke-opacity="1" id="path2523" d="m 30.629451,12.487284 0,-8.6406483" />
                <path stroke="#747400" gorn="0.4.0.0.17" style="stroke-linecap:round;stroke-linejoin:miter;stroke-miterlimit:10;" stroke-width="0.86400002" fill="none" stroke-opacity="1" id="path2525" d="m 30.629451,3.8466357 0.722664,-0.718776" />
                <path stroke="#747400" gorn="0.4.0.0.18" style="stroke-linecap:round;stroke-linejoin:miter;stroke-miterlimit:10;" stroke-width="0.86400002" fill="none" stroke-opacity="1" id="path2527" d="m 31.352115,3.1278597 4.67964,0" />
                <path stroke="#747400" gorn="0.4.0.0.19" style="stroke-linecap:round;stroke-linejoin:miter;stroke-miterlimit:10;" stroke-width="0.86400002" fill="none" stroke-opacity="1" id="path2529" d="m 36.031755,3.1278597 0.718776,0.718776" />
                <path stroke="#747400" gorn="0.4.0.0.20" style="stroke-linecap:round;stroke-linejoin:miter;stroke-miterlimit:10;" stroke-width="0.86400002" fill="none" stroke-opacity="1" id="path2531" d="m 36.750531,3.8466357 0,9.3593523" />
                <path stroke="#747400" gorn="0.4.0.0.21" style="stroke-linecap:round;stroke-linejoin:miter;stroke-miterlimit:10;" stroke-width="0.86400002" fill="none" stroke-opacity="1" id="path2533" d="m 9.0317547,11.069316 0,6.816384" />
            </g>
        </g>
    </g>
    <path stroke="none" gorn="0.5" style="fill-rule:evenodd;" fill="#0f7391" fill-opacity="1" id="path5-7-1-7" d="m 1.816128,54.969169 36.36,0 0,-40.358537 -36.36,0 z m 0,0" />
    <g gorn="0.6" style="fill:#0f7391;fill-opacity:1" id="surface4817" >
        <g transform="matrix(72,0,0,-72,-9.3348,69.024)" >
            <g >
                <path stroke="#ffcc50" gorn="0.6.0.0.0" style="stroke-linecap:round;stroke-linejoin:miter;stroke-miterlimit:10;" stroke-width="0.02100000000000000" fill="none" fill-opacity="1" stroke-opacity="1" id="path427" d="m 0.200397,0.221525 0,0.018988 m 0.013997,0 0,-0.018988" />
            </g>
        </g>
        <g transform="matrix(72,0,0,-72,-9.3348,69.024)" >
            <g >
                <path stroke="#ffcc50" gorn="0.6.1.0.0" style="stroke-linecap:round;stroke-linejoin:miter;stroke-miterlimit:10;" stroke-width="0.02100000000000000" fill="none" fill-opacity="1" stroke-opacity="1" id="path435" d="m 0.250418,0.221525 0,0.018988 m 0.013998,0 0,-0.018988" />
            </g>
        </g>
        <g transform="matrix(72,0,0,-72,-9.3348,69.024)" >
            <g >
                <path stroke="#ffcc50" gorn="0.6.2.0.0" style="stroke-linecap:round;stroke-linejoin:miter;stroke-miterlimit:10;" stroke-width="0.02100000000000000" fill="none" fill-opacity="1" stroke-opacity="1" id="path443" d="m 0.300386,0.221525 0,0.018988 m 0.013997,0 0,-0.018988" />
            </g>
        </g>
        <g transform="matrix(72,0,0,-72,-9.3348,69.024)" >
            <g >
                <path stroke="#ffcc50" gorn="0.6.3.0.0" style="stroke-linecap:round;stroke-linejoin:miter;stroke-miterlimit:10;" stroke-width="0.02100000000000000" fill="none" fill-opacity="1" stroke-opacity="1" id="path451" d="m 0.350407,0.221525 0,0.018988 m 0.013998,0 0,-0.018988" />
            </g>
        </g>
        <g transform="matrix(72,0,0,-72,-9.3348,69.024)" >
            <g >
                <path stroke="#ffcc50" gorn="0.6.4.0.0" style="stroke-linecap:round;stroke-linejoin:miter;stroke-miterlimit:10;" stroke-width="0.02100000000000000" fill="none" fill-opacity="1" stroke-opacity="1" id="path459" d="m 0.400375,0.221525 0,0.018988 m 0.014051,0 0,-0.018988" />
            </g>
        </g>
        <g transform="matrix(72,0,0,-72,-9.3348,69.024)" >
            <g >
                <path stroke="#ffcc50" gorn="0.6.5.0.0" style="stroke-linecap:round;stroke-linejoin:miter;stroke-miterlimit:10;" stroke-width="0.02100000000000000" fill="none" fill-opacity="1" stroke-opacity="1" id="path467" d="m 0.450397,0.221525 0,0.018988 m 0.013997,0 0,-0.018988" />
            </g>
        </g>
        <g transform="matrix(72,0,0,-72,-9.3348,69.024)" >
            <g >
                <path stroke="#ffcc50" gorn="0.6.6.0.0" style="stroke-linecap:round;stroke-linejoin:miter;stroke-miterlimit:10;" stroke-width="0.02100000000000000" fill="none" fill-opacity="1" stroke-opacity="1" id="path475" d="m 0.500418,0.221525 0,0.018988 m 0.013998,0 0,-0.018988" />
            </g>
        </g>
        <g transform="matrix(72,0,0,-72,-9.3348,69.024)" >
            <g >
                <path stroke="#ffcc50" gorn="0.6.7.0.0" style="stroke-linecap:round;stroke-linejoin:miter;stroke-miterlimit:10;" stroke-width="0.02100000000000000" fill="none" fill-opacity="1" stroke-opacity="1" id="path483" d="m 0.550386,0.221525 0,0.018988 m 0.013997,0 0,-0.018988" />
            </g>
        </g>
        <g transform="matrix(72,0,0,-72,-9.3348,69.024)" >
            <g >
                <path stroke="#ffcc50" gorn="0.6.8.0.0" style="stroke-linecap:round;stroke-linejoin:miter;stroke-miterlimit:10;" stroke-width="0.02100000000000000" fill="none" fill-opacity="1" stroke-opacity="1" id="path491" d="m 0.600407,0.221525 0,0.018988 m 0.013998,0 0,-0.018988" />
            </g>
        </g>
        <g transform="matrix(72,0,0,-72,-9.3348,69.024)" >
            <g >
                <path stroke="#ffcc50" gorn="0.6.9.0.0" style="stroke-linecap:round;stroke-linejoin:miter;stroke-miterlimit:10;" stroke-width="0.02100000000000000" fill="none" fill-opacity="1" stroke-opacity="1" id="path499" d="m 0.641911,0.308981 -0.018988,0 m 0.018988,0.013998 0,-0.013998 m -0.018988,0.013998 0.018988,0" />
            </g>
        </g>
        <g transform="matrix(72,0,0,-72,-9.3348,69.024)" >
            <g >
                <path stroke="#ffcc50" gorn="0.6.10.0.0" style="stroke-linecap:round;stroke-linejoin:miter;stroke-miterlimit:10;" stroke-width="0.02100000000000000" fill="none" fill-opacity="1" stroke-opacity="1" id="path507" d="m 0.641911,0.359003 -0.018988,0 M 0.641911,0.373 l 0,-0.013997 M 0.622923,0.373 l 0.018988,0" />
            </g>
        </g>
        <g transform="matrix(72,0,0,-72,-9.3348,69.024)" >
            <g >
                <path stroke="#ffcc50" gorn="0.6.11.0.0" style="stroke-linecap:round;stroke-linejoin:miter;stroke-miterlimit:10;" stroke-width="0.02100000000000000" fill="none" fill-opacity="1" stroke-opacity="1" id="path515" d="m 0.641911,0.409025 -0.018988,0 m 0.018988,0.013997 0,-0.013997 m -0.018988,0.013997 0.018988,0" />
            </g>
        </g>
        <g transform="matrix(72,0,0,-72,-9.3348,69.024)" >
            <g >
                <path stroke="#ffcc50" gorn="0.6.12.0.0" style="stroke-linecap:round;stroke-linejoin:miter;stroke-miterlimit:10;" stroke-width="0.02100000000000000" fill="none" fill-opacity="1" stroke-opacity="1" id="path523" d="m 0.641911,0.458992 -0.018988,0 m 0.018988,0.013998 0,-0.013998 m -0.018988,0.013998 0.018988,0" />
            </g>
        </g>
        <g transform="matrix(72,0,0,-72,-9.3348,69.024)" >
            <g >
                <path stroke="#ffcc50" gorn="0.6.13.0.0" style="stroke-linecap:round;stroke-linejoin:miter;stroke-miterlimit:10;" stroke-width="0.02100000000000000" fill="none" fill-opacity="1" stroke-opacity="1" id="path531" d="m 0.641911,0.509014 -0.018988,0 m 0.018988,0.013997 0,-0.013997 m -0.018988,0.013997 0.018988,0" />
            </g>
        </g>
        <g transform="matrix(72,0,0,-72,-9.3348,69.024)" >
            <g >
                <path stroke="#ffcc50" gorn="0.6.14.0.0" style="stroke-linecap:round;stroke-linejoin:miter;stroke-miterlimit:10;" stroke-width="0.02100000000000000" fill="none" fill-opacity="1" stroke-opacity="1" id="path539" d="m 0.641911,0.558981 -0.018988,0 m 0.018988,0.013998 0,-0.013998 m -0.018988,0.013998 0.018988,0" />
            </g>
        </g>
        <g transform="matrix(72,0,0,-72,-9.3348,69.024)" >
            <g >
                <path stroke="#ffcc50" gorn="0.6.15.0.0" style="stroke-linecap:round;stroke-linejoin:miter;stroke-miterlimit:10;" stroke-width="0.02100000000000000" fill="none" fill-opacity="1" stroke-opacity="1" id="path547" d="m 0.641911,0.609003 -0.018988,0 M 0.641911,0.623 l 0,-0.013997 M 0.622923,0.623 l 0.018988,0" />
            </g>
        </g>
        <path stroke="#ffcc50" gorn="0.6.16" style="stroke-linecap:round;stroke-linejoin:miter;stroke-miterlimit:10;" stroke-width="1.51199996" fill="none" stroke-opacity="1" id="path555" d="m 36.882792,21.5742 c -0.455688,0 -0.911426,0 -1.367136,0 m 1.367136,-1.007784 c 0,0.335952 0,0.671832 0,1.007784 m -1.367136,-1.007784 c 0.455688,0 0.911426,0 1.367136,0" />
        <g transform="matrix(72,0,0,-72,-9.3348,69.024)" >
            <g >
                <path stroke="#ffcc50" gorn="0.6.17.0.0" style="stroke-linecap:round;stroke-linejoin:miter;stroke-miterlimit:10;" stroke-width="0.02100000000000000" fill="none" fill-opacity="1" stroke-opacity="1" id="path563" d="m 0.641911,0.708992 -0.018988,0 m 0.018988,0.013998 0,-0.013998 m -0.018988,0.013998 0.018988,0" />
            </g>
        </g>
        <g transform="matrix(72,0,0,-72,-9.3348,69.024)" >
            <g >
                <path stroke="#ffcc50" gorn="0.6.18.0.0" style="stroke-linecap:round;stroke-linejoin:miter;stroke-miterlimit:10;" stroke-width="0.02100000000000000" fill="none" fill-opacity="1" stroke-opacity="1" id="path571" d="m 0.17289,0.72299 0.018989,0 M 0.17289,0.708992 l 0,0.013998 m 0.018989,-0.013998 -0.018989,0" />
            </g>
        </g>
        <g transform="matrix(72,0,0,-72,-9.3348,69.024)" >
            <g >
                <path stroke="#ffcc50" gorn="0.6.19.0.0" style="stroke-linecap:round;stroke-linejoin:miter;stroke-miterlimit:10;" stroke-width="0.02100000000000000" fill="none" fill-opacity="1" stroke-opacity="1" id="path579" d="m 0.17289,0.673022 0.018989,0 M 0.17289,0.659025 l 0,0.013997 m 0.018989,-0.013997 -0.018989,0" />
            </g>
        </g>
        <g transform="matrix(72,0,0,-72,-9.3348,69.024)" >
            <g >
                <path stroke="#ffcc50" gorn="0.6.20.0.0" style="stroke-linecap:round;stroke-linejoin:miter;stroke-miterlimit:10;" stroke-width="0.02100000000000000" fill="none" fill-opacity="1" stroke-opacity="1" id="path587" d="m 0.17289,0.623 0.018989,0 M 0.17289,0.609003 l 0,0.013997 m 0.018989,-0.013997 -0.018989,0" />
            </g>
        </g>
        <g transform="matrix(72,0,0,-72,-9.3348,69.024)" >
            <g >
                <path stroke="#ffcc50" gorn="0.6.21.0.0" style="stroke-linecap:round;stroke-linejoin:miter;stroke-miterlimit:10;" stroke-width="0.02100000000000000" fill="none" fill-opacity="1" stroke-opacity="1" id="path595" d="m 0.17289,0.572979 0.018989,0 M 0.17289,0.558981 l 0,0.013998 m 0.018989,-0.013998 -0.018989,0" />
            </g>
        </g>
        <g transform="matrix(72,0,0,-72,-9.3348,69.024)" >
            <g >
                <path stroke="#ffcc50" gorn="0.6.22.0.0" style="stroke-linecap:round;stroke-linejoin:miter;stroke-miterlimit:10;" stroke-width="0.02100000000000000" fill="none" fill-opacity="1" stroke-opacity="1" id="path603" d="m 0.17289,0.523011 0.018989,0 M 0.17289,0.509014 l 0,0.013997 m 0.018989,-0.013997 -0.018989,0" />
            </g>
        </g>
        <g transform="matrix(72,0,0,-72,-9.3348,69.024)" >
            <g >
                <path stroke="#ffcc50" gorn="0.6.23.0.0" style="stroke-linecap:round;stroke-linejoin:miter;stroke-miterlimit:10;" stroke-width="0.02100000000000000" fill="none" fill-opacity="1" stroke-opacity="1" id="path611" d="m 0.17289,0.47299 0.018989,0 M 0.17289,0.458992 l 0,0.013998 m 0.018989,-0.013998 -0.018989,0" />
            </g>
        </g>
        <g transform="matrix(72,0,0,-72,-9.3348,69.024)" >
            <g >
                <path stroke="#ffcc50" gorn="0.6.24.0.0" style="stroke-linecap:round;stroke-linejoin:miter;stroke-miterlimit:10;" stroke-width="0.02100000000000000" fill="none" fill-opacity="1" stroke-opacity="1" id="path619" d="m 0.17289,0.423022 0.018989,0 M 0.17289,0.409025 l 0,0.013997 m 0.018989,-0.013997 -0.018989,0" />
            </g>
        </g>
        <g transform="matrix(72,0,0,-72,-9.3348,69.024)" >
            <g >
                <path stroke="#ffcc50" gorn="0.6.25.0.0" style="stroke-linecap:round;stroke-linejoin:miter;stroke-miterlimit:10;" stroke-width="0.02100000000000000" fill="none" fill-opacity="1" stroke-opacity="1" id="path627" d="m 0.17289,0.373 0.018989,0 M 0.17289,0.359003 l 0,0.013997 m 0.018989,-0.013997 -0.018989,0" />
            </g>
        </g>
        <g transform="matrix(72,0,0,-72,-9.3348,69.024)" >
            <g >
                <path stroke="#ffcc50" gorn="0.6.26.0.0" style="stroke-linecap:round;stroke-linejoin:miter;stroke-miterlimit:10;" stroke-width="0.02100000000000000" fill="none" fill-opacity="1" stroke-opacity="1" id="path635" d="m 0.17289,0.322979 0.018989,0 M 0.17289,0.308981 l 0,0.013998 m 0.018989,-0.013998 -0.018989,0" />
            </g>
        </g>
        <path stroke="none" gorn="0.6.27" fill="#ffffff" fill-opacity="1" id="rect29445-6" d="m 12.043102,45.399042 7.351027,0 0,-7.351027 -7.351027,0 0,7.351027 z m 0.918749,-3.288057 0,-0.774917 c 0,-0.01866 0.01506,-0.03611 0.03339,-0.03951 l 0.777949,-0.144852 c 0.01837,-0.0037 0.03772,-0.0208 0.04356,-0.03845 l 0.21373,-0.521677 c 0.0082,-0.01671 0.0066,-0.04236 -0.0041,-0.05773 l -0.445702,-0.650318 c -0.01056,-0.01535 -0.0091,-0.03846 0.0041,-0.05166 l 0.548008,-0.546996 c 0.01325,-0.01321 0.0363,-0.01557 0.05165,-0.005 l 0.638164,0.437539 c 0.01542,0.01068 0.04213,0.01263 0.05875,0.0041 l 0.537882,-0.230957 c 0.01763,-0.0061 0.03405,-0.02625 0.03745,-0.04456 l 0.140803,-0.751611 c 0.0033,-0.01833 0.0208,-0.03346 0.03951,-0.03346 l 0.773904,0 c 0.01859,0 0.03717,0.01517 0.04052,0.03346 l 0.136742,0.733397 c 0.0033,0.01837 0.02072,0.03791 0.0385,0.04356 l 0.572328,0.228931 c 0.01679,0.0082 0.04236,0.0065 0.05773,-0.0041 l 0.607771,-0.416306 c 0.01535,-0.01053 0.03845,-0.0081 0.05166,0.005 l 0.547002,0.546992 c 0.0131,0.01314 0.01542,0.0363 0.0051,0.05166 l -0.409238,0.596633 c -0.01049,0.01535 -0.01149,0.0407 -0.0018,0.05673 l 0.14076,0.263369 c 0.0085,0.01667 7.36e-4,0.03644 -0.01623,0.04356 l -1.310759,0.541934 c -0.01723,0.0072 -0.03892,3.68e-4 -0.04862,-0.0152 l -0.04052,-0.06584 c -0.0075,-0.01211 -0.02072,-0.02868 -0.03243,-0.04153 -0.152059,-0.237516 -0.417273,-0.395054 -0.720211,-0.395054 -0.472744,0 -0.855948,0.383245 -0.855948,0.855945 0,0.472704 0.383204,0.855949 0.855948,0.855949 0.302938,0 0.568152,-0.157578 0.720211,-0.39505 0.01171,-0.01292 0.025,-0.03037 0.03243,-0.04256 l 0.04052,-0.06483 c 0.0098,-0.0159 0.03136,-0.02345 0.04862,-0.01623 l 1.310758,0.54192 c 0.01723,0.0071 0.02466,0.02695 0.01623,0.04355 l -0.140964,0.263366 c -0.0094,0.01609 -0.0085,0.04138 0.0018,0.05672 l 0.409278,0.596637 c 0.01042,0.01535 0.0081,0.03851 -0.0051,0.05166 l -0.547,0.548015 c -0.01318,0.01318 -0.0363,0.01458 -0.05166,0.004 L 17.25656,43.750891 c -0.01535,-0.01067 -0.04094,-0.0123 -0.05774,-0.004 l -0.572322,0.228928 c -0.01782,0.0056 -0.03515,0.02525 -0.0385,0.04355 l -0.13675,0.733382 c -0.0033,0.01837 -0.02187,0.03342 -0.04052,0.03342 l -0.773903,0 c -0.01866,0 -0.036,-0.01506 -0.03951,-0.03342 l -0.140799,-0.751619 c -0.0033,-0.01841 -0.0198,-0.03846 -0.03745,-0.04459 l -0.537886,-0.23095 c -0.01664,-0.0085 -0.04328,-0.0065 -0.05875,0.004 l -0.638163,0.437593 c -0.01535,0.01056 -0.03846,0.0081 -0.05166,-0.0051 l -0.548008,-0.546996 c -0.01329,-0.01314 -0.01465,-0.0363 -0.0041,-0.05166 l 0.445699,-0.650322 c 0.0106,-0.01531 0.01226,-0.04104 0.0041,-0.05774 l -0.213733,-0.521674 c -0.0059,-0.01782 -0.02522,-0.03501 -0.04356,-0.03851 l -0.77795,-0.144852 c -0.01837,-0.0033 -0.03339,-0.02087 -0.03339,-0.0395 z" />
        <g transform="matrix(0,0.99847688,-0.99847688,0,60.89005,-34.346311)" >
            <g >
                <g gorn="0.6.28.0.0" id="g2829" >
                    <g gorn="0.6.28.0.0.0" id="g2831" >
                        <g gorn="0.6.28.0.0.0.0" id="g2833" />
                    </g>
                </g>
            </g>
        </g>
        <g transform="matrix(-0.64765715,0,0,-0.64765715,28.212011,64.994159)" >
            <g >
                <g gorn="0.6.29.0.0" id="g8512" >
                    <g transform="matrix(0,0.33776645,0.33776645,0,25.029021,50.321033)" >
                        <g >
                            <g gorn="0.6.29.0.0.0.0.0" id="g2836" >
                                <g gorn="0.6.29.0.0.0.0.0.0" id="g2838" >
                                    <g gorn="0.6.29.0.0.0.0.0.0.0" id="g2840" >
                                        <g gorn="0.6.29.0.0.0.0.0.0.0.0" id="g2842" >
                                            <g gorn="0.6.29.0.0.0.0.0.0.0.0.0" id="g2844" >
                                                <g gorn="0.6.29.0.0.0.0.0.0.0.0.0.0" id="g2846" >
                                                    <g gorn="0.6.29.0.0.0.0.0.0.0.0.0.0.0" style="fill:#ffffff;fill-opacity:1" id="g5841-1-8" >
                                                        <path stroke="none" gorn="0.6.29.0.0.0.0.0.0.0.0.0.0.0.0" style="fill-rule:evenodd;" fill="#ffffff" fill-opacity="1" id="path5843-0-5-2" d="M 0,0 C -9.921,-8.617 -8.012,-23.909 2.395,-30.86 -3.607,-20.345 -4.081,-10.103 0,0" />
                                                    </g>
                                                </g>
                                            </g>
                                        </g>
                                    </g>
                                </g>
                            </g>
                        </g>
                    </g>
                    <g transform="matrix(0,0.33776645,0.33776645,0,25.029021,53.051025)" >
                        <g >
                            <g gorn="0.6.29.0.0.1.0.0" id="g2850" >
                                <g gorn="0.6.29.0.0.1.0.0.0" id="g2852" >
                                    <g gorn="0.6.29.0.0.1.0.0.0.0" id="g2854" >
                                        <g gorn="0.6.29.0.0.1.0.0.0.0.0" id="g2856" >
                                            <g gorn="0.6.29.0.0.1.0.0.0.0.0.0" id="g2858" >
                                                <g gorn="0.6.29.0.0.1.0.0.0.0.0.0.0" id="g2860" >
                                                    <g gorn="0.6.29.0.0.1.0.0.0.0.0.0.0.0" style="fill:#ffffff;fill-opacity:1" id="g5845-4-7" >
                                                        <path stroke="none" gorn="0.6.29.0.0.1.0.0.0.0.0.0.0.0.0" style="fill-rule:evenodd;" fill="#ffffff" fill-opacity="1" id="path5847-8-5-7" d="M 0,0 C 9.92,-8.617 8.012,-23.909 -2.393,-30.86 3.606,-20.345 4.083,-10.103 0,0" />
                                                    </g>
                                                </g>
                                            </g>
                                        </g>
                                    </g>
                                </g>
                            </g>
                        </g>
                    </g>
                    <g transform="matrix(0,0.33776645,0.33776645,0,22.333812,45.307633)" >
                        <g >
                            <g gorn="0.6.29.0.0.2.0.0" id="g2864" >
                                <g gorn="0.6.29.0.0.2.0.0.0" id="g2866" >
                                    <g gorn="0.6.29.0.0.2.0.0.0.0" id="g2868" >
                                        <g gorn="0.6.29.0.0.2.0.0.0.0.0" id="g2870" >
                                            <g gorn="0.6.29.0.0.2.0.0.0.0.0.0" id="g2872" >
                                                <g gorn="0.6.29.0.0.2.0.0.0.0.0.0.0" id="g2874" >
                                                    <g gorn="0.6.29.0.0.2.0.0.0.0.0.0.0.0" style="fill:#ffffff;fill-opacity:1" id="g5849-4-1" >
                                                        <path stroke="none" gorn="0.6.29.0.0.2.0.0.0.0.0.0.0.0.0" style="fill-rule:evenodd;" fill="#ffffff" fill-opacity="1" id="path5851-3-8-2" d="M 0,0 C -3.866,-12.136 5.173,-25.197 17.997,-25.813 9.268,-21.144 1.785,-11.982 0,0" />
                                                    </g>
                                                </g>
                                            </g>
                                        </g>
                                    </g>
                                </g>
                            </g>
                        </g>
                    </g>
                    <g transform="matrix(0,0.33776645,0.33776645,0,22.333812,58.065408)" >
                        <g >
                            <g gorn="0.6.29.0.0.3.0.0" id="g2878" >
                                <g gorn="0.6.29.0.0.3.0.0.0" id="g2880" >
                                    <g gorn="0.6.29.0.0.3.0.0.0.0" id="g2882" >
                                        <g gorn="0.6.29.0.0.3.0.0.0.0.0" id="g2884" >
                                            <g gorn="0.6.29.0.0.3.0.0.0.0.0.0" id="g2886" >
                                                <g gorn="0.6.29.0.0.3.0.0.0.0.0.0.0" id="g2888" >
                                                    <g gorn="0.6.29.0.0.3.0.0.0.0.0.0.0.0" style="fill:#ffffff;fill-opacity:1" id="g5853-8-6" >
                                                        <path stroke="none" gorn="0.6.29.0.0.3.0.0.0.0.0.0.0.0.0" style="fill-rule:evenodd;" fill="#ffffff" fill-opacity="1" id="path5855-7-8-0" d="M 0,0 C 3.865,-12.136 -5.175,-25.197 -17.999,-25.813 -9.269,-21.144 -1.788,-11.982 0,0" />
                                                    </g>
                                                </g>
                                            </g>
                                        </g>
                                    </g>
                                </g>
                            </g>
                        </g>
                    </g>
                </g>
            </g>
        </g>
        <g transform="matrix(0,-1,1,0,0,0)" >
            <g >
                <g stroke="none" xml:space="preserve" gorn="0.6.30.0.0" xmlns:xml="http://www.w3.org/XML/1998/namespace" style="font-style:normal;font-variant:normal;font-weight:normal;font-stretch:normal;line-height:125%;letter-spacing:0px;word-spacing:0px;font-family:Droid Sans;-inkscape-font-specification:Droid Sans" fill="#000000" fill-opacity="1" id="text8675" font-size="3.84" >
                    <text x="-45.830292" y="27.306053" gorn="0.6.30.0.0.0" style="font-size:4.80000019px;font-weight:bold;fill:#ffffff;-inkscape-font-specification:Droid Sans Bold" id="tspan8677" >BLE Micro</text>
                </g>
            </g>
        </g>
    </g>
</svg>
