<?xml version='1.0' encoding='UTF-8' standalone='no'?>
<svg xmlns="http://www.w3.org/2000/svg" version="1.1" gorn="0" height="50" width="50" viewBox="0 0 40 40" id="svg2" >
    <desc >
        <referenceFile >ble_micro_copper2.svg</referenceFile>
    </desc>
    <metadata id="metadata641" >
        <rdf:RDF xmlns:rdf="http://www.w3.org/1999/02/22-rdf-syntax-ns#">
            <cc:Work rdf:about="" xmlns:rdf="http://www.w3.org/1999/02/22-rdf-syntax-ns#" xmlns:cc="http://creativecommons.org/ns#">
                <dc:format xmlns:dc="http://purl.org/dc/elements/1.1/">image/svg+xml</dc:format>
                <dc:type xmlns:rdf="http://www.w3.org/1999/02/22-rdf-syntax-ns#" rdf:resource="http://purl.org/dc/dcmitype/StillImage" xmlns:dc="http://purl.org/dc/elements/1.1/"/>
                <dc:title xmlns:dc="http://purl.org/dc/elements/1.1/"/>
            </cc:Work>
        </rdf:RDF>
    </metadata>
    <defs id="defs639" />
    <g gorn="0.3" id="copper0" >
        <g gorn="0.3.0" id="copper1" >
            <path stroke="#ffcc50" gorn="0.3.0.0" style="stroke-linecap:round;stroke-linejoin:miter;stroke-miterlimit:10;" stroke-width="1.51199996" fill="none" stroke-opacity="1" id="connector10pin" d="m 5.095748,38.05274 0,-1.367136 m 1.007784,0 0,1.367136" />
            <path stroke="#ffcc50" gorn="0.3.0.1" style="stroke-linecap:round;stroke-linejoin:miter;stroke-miterlimit:10;" stroke-width="1.51199996" fill="none" stroke-opacity="1" id="connector11pin" d="m 8.69726,38.05274 0,-1.367136 m 1.007856,0 0,1.367136" />
            <path stroke="#ffcc50" gorn="0.3.0.2" style="stroke-linecap:round;stroke-linejoin:miter;stroke-miterlimit:10;" stroke-width="1.51199996" fill="none" stroke-opacity="1" id="connector12pin" d="m 12.294956,38.05274 0,-1.367136 m 1.007784,0 0,1.367136" />
            <path stroke="#ffcc50" gorn="0.3.0.3" style="stroke-linecap:round;stroke-linejoin:miter;stroke-miterlimit:10;" stroke-width="1.51199996" fill="none" stroke-opacity="1" id="connector13pin" d="m 15.896468,38.05274 0,-1.367136 m 1.007856,0 0,1.367136" />
            <path stroke="#ffcc50" gorn="0.3.0.4" style="stroke-linecap:round;stroke-linejoin:miter;stroke-miterlimit:10;" stroke-width="1.51199996" fill="none" stroke-opacity="1" id="connector14pin" d="m 19.494164,38.05274 0,-1.367136 m 1.011672,0 0,1.367136" />
            <path stroke="#ffcc50" gorn="0.3.0.5" style="stroke-linecap:round;stroke-linejoin:miter;stroke-miterlimit:10;" stroke-width="1.51199996" fill="none" stroke-opacity="1" id="connector15pin" d="m 23.095748,38.05274 0,-1.367136 m 1.007784,0 0,1.367136" />
            <path stroke="#ffcc50" gorn="0.3.0.6" style="stroke-linecap:round;stroke-linejoin:miter;stroke-miterlimit:10;" stroke-width="1.51199996" fill="none" stroke-opacity="1" id="connector16pin" d="m 26.69726,38.05274 0,-1.367136 m 1.007856,0 0,1.367136" />
            <path stroke="#ffcc50" gorn="0.3.0.7" style="stroke-linecap:round;stroke-linejoin:miter;stroke-miterlimit:10;" stroke-width="1.51199996" fill="none" stroke-opacity="1" id="connector17pin" d="m 30.294956,38.05274 0,-1.367136 m 1.007784,0 0,1.367136" />
            <path stroke="#ffcc50" gorn="0.3.0.8" style="stroke-linecap:round;stroke-linejoin:miter;stroke-miterlimit:10;" stroke-width="1.51199996" fill="none" stroke-opacity="1" id="connector18pin" d="m 33.896468,38.05274 0,-1.367136 m 1.007856,0 0,1.367136" />
            <path stroke="#ffcc50" gorn="0.3.0.9" style="stroke-linecap:round;stroke-linejoin:miter;stroke-miterlimit:10;" stroke-width="1.51199996" fill="none" stroke-opacity="1" id="connector19pin" d="m 36.884756,31.755908 -1.367136,0 m 1.367136,-1.007856 0,1.007856 m -1.367136,-1.007856 1.367136,0" />
            <path stroke="#ffcc50" gorn="0.3.0.10" style="stroke-linecap:round;stroke-linejoin:miter;stroke-miterlimit:10;" stroke-width="1.51199996" fill="none" stroke-opacity="1" id="connector20pin" d="m 36.884756,28.154324 -1.367136,0 m 1.367136,-1.007784 0,1.007784 m -1.367136,-1.007784 1.367136,0" />
            <path stroke="#ffcc50" gorn="0.3.0.11" style="stroke-linecap:round;stroke-linejoin:miter;stroke-miterlimit:10;" stroke-width="1.51199996" fill="none" stroke-opacity="1" id="connector21pin" d="m 36.884756,24.55274 -1.367136,0 m 1.367136,-1.007784 0,1.007784 m -1.367136,-1.007784 1.367136,0" />
            <path stroke="#ffcc50" gorn="0.3.0.12" style="stroke-linecap:round;stroke-linejoin:miter;stroke-miterlimit:10;" stroke-width="1.51199996" fill="none" stroke-opacity="1" id="connector22pin" d="m 36.884756,20.955116 -1.367136,0 m 1.367136,-1.007856 0,1.007856 m -1.367136,-1.007856 1.367136,0" />
            <path stroke="#ffcc50" gorn="0.3.0.13" style="stroke-linecap:round;stroke-linejoin:miter;stroke-miterlimit:10;" stroke-width="1.51199996" fill="none" stroke-opacity="1" id="connector23pin" d="m 36.884756,17.353532 -1.367136,0 m 1.367136,-1.007784 0,1.007784 m -1.367136,-1.007784 1.367136,0" />
            <path stroke="#ffcc50" gorn="0.3.0.14" style="stroke-linecap:round;stroke-linejoin:miter;stroke-miterlimit:10;" stroke-width="1.51199996" fill="none" stroke-opacity="1" id="connector24pin" d="m 36.884756,13.755908 -1.367136,0 m 1.367136,-1.007856 0,1.007856 m -1.367136,-1.007856 1.367136,0" />
            <path stroke="#ffcc50" gorn="0.3.0.15" style="stroke-linecap:round;stroke-linejoin:miter;stroke-miterlimit:10;" stroke-width="1.51199996" fill="none" stroke-opacity="1" id="connector25pin" d="m 36.884756,10.154324 -1.367136,0 m 1.367136,-1.007784 0,1.007784 M 35.51762,9.14654 l 1.367136,0" />
            <path stroke="#ffcc50" gorn="0.3.0.16" style="stroke-linecap:round;stroke-linejoin:miter;stroke-miterlimit:10;" stroke-width="1.51199996" fill="none" stroke-opacity="1" id="connector26pin" d="m 36.884756,6.55274 c -0.455688,0 -0.911426,0 -1.367136,0 m 1.367136,-1.007784 c 0,0.335952 0,0.671832 0,1.007784 M 35.51762,5.544956 c 0.455688,0 0.911426,0 1.367136,0" />
            <path stroke="#ffcc50" gorn="0.3.0.17" style="stroke-linecap:round;stroke-linejoin:miter;stroke-miterlimit:10;" stroke-width="1.51199996" fill="none" stroke-opacity="1" id="connector27pin" d="m 36.884756,2.955116 -1.367136,0 m 1.367136,-1.007856 0,1.007856 M 35.51762,1.94726 l 1.367136,0" />
            <path stroke="#ffcc50" gorn="0.3.0.18" style="stroke-linecap:round;stroke-linejoin:miter;stroke-miterlimit:10;" stroke-width="1.51199996" fill="none" stroke-opacity="1" id="connector1pin" d="m 3.115244,1.94726 1.367208,0 m -1.367208,1.007856 0,-1.007856 m 1.367208,1.007856 -1.367208,0" />
            <path stroke="#ffcc50" gorn="0.3.0.19" style="stroke-linecap:round;stroke-linejoin:miter;stroke-miterlimit:10;" stroke-width="1.51199996" fill="none" stroke-opacity="1" id="connector2pin" d="m 3.115244,5.544956 1.367208,0 m -1.367208,1.007784 0,-1.007784 m 1.367208,1.007784 -1.367208,0" />
            <path stroke="#ffcc50" gorn="0.3.0.20" style="stroke-linecap:round;stroke-linejoin:miter;stroke-miterlimit:10;" stroke-width="1.51199996" fill="none" stroke-opacity="1" id="connector3pin" d="m 3.115244,9.14654 1.367208,0 m -1.367208,1.007784 0,-1.007784 m 1.367208,1.007784 -1.367208,0" />
            <path stroke="#ffcc50" gorn="0.3.0.21" style="stroke-linecap:round;stroke-linejoin:miter;stroke-miterlimit:10;" stroke-width="1.51199996" fill="none" stroke-opacity="1" id="connector4pin" d="m 3.115244,12.748052 1.367208,0 m -1.367208,1.007856 0,-1.007856 m 1.367208,1.007856 -1.367208,0" />
            <path stroke="#ffcc50" gorn="0.3.0.22" style="stroke-linecap:round;stroke-linejoin:miter;stroke-miterlimit:10;" stroke-width="1.51199996" fill="none" stroke-opacity="1" id="connector5pin" d="m 3.115244,16.345748 1.367208,0 m -1.367208,1.007784 0,-1.007784 m 1.367208,1.007784 -1.367208,0" />
            <path stroke="#ffcc50" gorn="0.3.0.23" style="stroke-linecap:round;stroke-linejoin:miter;stroke-miterlimit:10;" stroke-width="1.51199996" fill="none" stroke-opacity="1" id="connector6pin" d="m 3.115244,19.94726 1.367208,0 m -1.367208,1.007856 0,-1.007856 m 1.367208,1.007856 -1.367208,0" />
            <path stroke="#ffcc50" gorn="0.3.0.24" style="stroke-linecap:round;stroke-linejoin:miter;stroke-miterlimit:10;" stroke-width="1.51199996" fill="none" stroke-opacity="1" id="connector7pin" d="m 3.115244,23.544956 1.367208,0 m -1.367208,1.007784 0,-1.007784 m 1.367208,1.007784 -1.367208,0" />
            <path stroke="#ffcc50" gorn="0.3.0.25" style="stroke-linecap:round;stroke-linejoin:miter;stroke-miterlimit:10;" stroke-width="1.51199996" fill="none" stroke-opacity="1" id="connector8pin" d="m 3.115244,27.14654 1.367208,0 m -1.367208,1.007784 0,-1.007784 m 1.367208,1.007784 -1.367208,0" />
            <path stroke="#ffcc50" gorn="0.3.0.26" style="stroke-linecap:round;stroke-linejoin:miter;stroke-miterlimit:10;" stroke-width="1.51199996" fill="none" stroke-opacity="1" id="connector9pin" d="m 3.115244,30.748052 1.367208,0 m -1.367208,1.007856 0,-1.007856 m 1.367208,1.007856 -1.367208,0" />
            <g transform="matrix(0,0.99847688,-0.99847688,0,60.892014,-49.367771)" >
                <g >
                    <g gorn="0.3.0.27.0.0" style="fill:#0f7391;fill-opacity:1" id="g2829" >
                        <g gorn="0.3.0.27.0.0.0" id="g2831" >
                            <g gorn="0.3.0.27.0.0.0.0" id="g2833" />
                        </g>
                    </g>
                </g>
            </g>
        </g>
    </g>
</svg>
